<svg width="918" height="1836" viewBox="0 0 918 1836" fill="none" xmlns="http://www.w3.org/2000/svg">
<path fill-rule="evenodd" clip-rule="evenodd" d="M528.761 1421.43C526.292 1281.1 473.221 985.296 465.597 909.109C457.975 832.923 485.09 807.12 511.089 819.69C537.088 832.264 544.866 1008.05 544.866 1008.05C544.866 1008.05 546.657 1042.45 553.442 1081.63C577.973 1223.26 560.755 1423.45 560.755 1423.45C560.755 1423.45 556 1436.49 541.609 1434.75C527.22 1433.01 528.761 1421.43 528.761 1421.43Z" fill="#FFC999"/>
<path fill-rule="evenodd" clip-rule="evenodd" d="M559.803 1427.41C560.128 1428.85 565.018 1377.47 564.781 1362.32C544.489 1365 525.727 1363.09 525.727 1363.09C525.727 1363.09 528.406 1421.66 527.642 1427.41C542.19 1436.21 559.803 1427.41 559.803 1427.41Z" fill="#597EF7"/>
<path fill-rule="evenodd" clip-rule="evenodd" d="M555.635 1496.92C553.115 1517.23 542.19 1527.98 530.919 1529.16C516.963 1530.64 501.765 1526.7 499.309 1514.19C496.507 1499.91 503.855 1492.61 512.068 1472.19C520.279 1451.76 524.198 1434.3 527.258 1419.75C527.258 1419.75 537.726 1413.63 534.918 1431.24C532.643 1445.5 527.129 1485.61 517.431 1488.41C526.876 1487.65 546.275 1495.05 546.275 1495.05C546.275 1495.05 539.382 1484.33 539.893 1480.75C540.404 1477.18 546.109 1440.57 546.402 1429.71C546.692 1418.96 556.014 1420.26 560.505 1421.52C561.904 1421.91 562.794 1423.26 562.625 1424.7C562.197 1428.28 556.829 1487.31 555.635 1496.92Z" fill="#4E5C93"/>
<path fill-rule="evenodd" clip-rule="evenodd" d="M550.616 1443.11C550.616 1443.11 562.258 1418.73 550.616 1416.31C541.426 1414.39 532.621 1414.01 531.472 1416.31C531.045 1417.16 531.088 1425.11 528.027 1441.58C524.45 1460.79 515.309 1483.34 511.944 1487.9C506.584 1495.18 512.329 1495.56 525.346 1499.01C538.363 1502.45 542.956 1502.45 546.404 1495.56C549.849 1488.67 549.849 1458.04 550.616 1443.11Z" fill="#4E5C93"/>
<path d="M526.376 1449.89C526.648 1449.19 527.436 1448.84 528.136 1449.11C529.861 1449.79 531.735 1450.7 533.738 1451.83C535.635 1452.9 537.621 1454.15 539.668 1455.54C542.11 1457.2 544.513 1458.98 546.775 1460.75L547.689 1461.48C547.981 1461.71 548.261 1461.93 548.527 1462.15L549.709 1463.13C550.743 1464.01 549.99 1465.7 548.644 1465.51C546.065 1465.16 542.959 1465.33 539.445 1465.97C536.247 1466.54 532.825 1467.48 529.317 1468.67C528.02 1469.12 526.759 1469.58 525.549 1470.05L524.716 1470.37L525.234 1470.54C529.18 1471.82 533.19 1474.07 537.184 1477.04L537.889 1477.57C540.216 1479.35 542.378 1481.26 544.32 1483.16L545.101 1483.94C545.225 1484.07 545.345 1484.19 545.463 1484.31L546.13 1485.01C546.447 1485.35 546.669 1485.6 546.788 1485.73C547.282 1486.3 547.225 1487.16 546.66 1487.65C546.095 1488.14 545.236 1488.09 544.741 1487.52L544.312 1487.05L544.146 1486.87C543.647 1486.34 543.068 1485.74 542.416 1485.1C540.548 1483.27 538.469 1481.44 536.236 1479.73C530.719 1475.51 525.21 1472.76 520.08 1472.15C518.723 1471.99 518.423 1470.15 519.66 1469.57L520.33 1469.27L521.658 1468.69C521.819 1468.62 521.985 1468.55 522.156 1468.48C524.099 1467.67 526.217 1466.86 528.44 1466.1C532.068 1464.87 535.617 1463.9 538.963 1463.29C540.655 1462.99 542.268 1462.78 543.795 1462.68L544.763 1462.63L543.75 1461.85C542.39 1460.81 540.988 1459.77 539.567 1458.77L538.14 1457.79C536.152 1456.44 534.228 1455.23 532.402 1454.2C530.504 1453.13 528.744 1452.27 527.15 1451.65C526.451 1451.38 526.104 1450.59 526.376 1449.89Z" fill="#CCD7EE"/>
<path d="M539.678 1452.45C543.307 1452.02 546.491 1452.04 549.121 1452.63C549.854 1452.79 550.316 1453.51 550.153 1454.25C549.99 1454.98 549.264 1455.44 548.531 1455.28C546.246 1454.77 543.353 1454.75 540.003 1455.15C537.235 1455.49 534.267 1456.1 531.235 1456.9C530.225 1457.17 529.247 1457.45 528.311 1457.73L528.051 1457.81L528.48 1458.01C531.624 1459.54 534.683 1461.47 537.636 1463.72L538.52 1464.41C541.319 1466.62 543.854 1468.99 546.082 1471.36C546.708 1472.03 547.273 1472.66 547.776 1473.24L548.461 1474.05C548.65 1474.28 548.789 1474.45 548.877 1474.56C549.541 1475.42 548.989 1476.64 547.961 1476.75L547.723 1476.75L547.442 1476.75C545.758 1476.73 543.536 1476.76 540.975 1476.87C537.148 1477.03 533.375 1477.35 529.854 1477.87C523.674 1478.77 518.829 1480.18 515.89 1482.14C515.265 1482.56 514.421 1482.39 514.004 1481.77C513.588 1481.14 513.756 1480.3 514.381 1479.88C517.737 1477.64 522.915 1476.13 529.462 1475.18C533.083 1474.65 536.946 1474.32 540.858 1474.15L542.384 1474.09C542.878 1474.08 543.356 1474.06 543.818 1474.05L544.847 1474.04L544.539 1473.7L544.101 1473.23C541.959 1470.95 539.52 1468.67 536.833 1466.54C532.643 1463.23 528.244 1460.61 523.724 1458.93C522.542 1458.49 522.541 1456.82 523.722 1456.38L524.903 1455.97C525.139 1455.89 525.389 1455.8 525.653 1455.72C527.157 1455.22 528.802 1454.73 530.538 1454.27C533.684 1453.44 536.771 1452.81 539.678 1452.45Z" fill="#CCD7EE"/>
<path fill-rule="evenodd" clip-rule="evenodd" d="M554.442 1500.92C554.442 1500.92 526.875 1477.95 501.605 1494.79C495.288 1508.88 498.943 1517.25 501.99 1521.6C503.251 1523.39 505.639 1525.9 507.705 1526.65C513.858 1528.87 529.993 1533.33 541.425 1525.81C555.973 1516.23 554.442 1500.92 554.442 1500.92Z" fill="#CCD7EE"/>
<path d="M502.754 1494.97C502.942 1494.61 503.379 1494.48 503.731 1494.67C504.083 1494.86 504.216 1495.29 504.029 1495.65C500.868 1501.57 504.287 1509.5 508.899 1512.57C512.271 1514.82 524.977 1516.99 535.011 1516.54C539.577 1516.33 543.323 1513.44 546.307 1508.71C547.408 1506.96 548.323 1505.09 549.061 1503.21C549.319 1502.56 549.536 1501.95 549.713 1501.4L549.919 1500.73C550.025 1500.35 550.422 1500.12 550.807 1500.23C551.191 1500.33 551.418 1500.73 551.312 1501.11L551.15 1501.65L551.087 1501.85C550.901 1502.42 550.674 1503.06 550.405 1503.74C549.637 1505.7 548.682 1507.65 547.529 1509.48C544.318 1514.57 540.199 1517.75 535.077 1517.98C524.763 1518.45 511.779 1516.23 508.098 1513.77C502.932 1510.33 499.188 1501.65 502.754 1494.97Z" fill="#A3B5D6"/>
<path d="M563.348 1370.18C564.082 1370.02 564.804 1370.49 564.961 1371.22C565.118 1371.96 564.651 1372.68 563.916 1372.84L563.438 1372.93C563.056 1373.01 562.61 1373.09 562.105 1373.18L560.602 1373.44C559.559 1373.61 558.435 1373.77 557.238 1373.93C548.219 1375.13 538.845 1375.45 530.056 1374.37C529.168 1374.26 528.291 1374.14 527.427 1374C526.686 1373.88 526.181 1373.18 526.299 1372.44C526.418 1371.7 527.115 1371.2 527.856 1371.31C528.688 1371.45 529.533 1371.57 530.389 1371.67C538.916 1372.72 548.071 1372.41 556.881 1371.24C558.343 1371.04 559.692 1370.84 560.913 1370.63L561.629 1370.51C562.465 1370.36 563.048 1370.24 563.348 1370.18Z" fill="#CCD7EE"/>
<path d="M540.099 1437.28C540.724 1437.26 541.266 1437.66 541.446 1438.23L541.469 1438.34L541.589 1438.37L541.761 1438.44L542.723 1438.91L543.923 1439.52C544.343 1439.73 544.781 1439.96 545.236 1440.2C547.834 1441.57 550.434 1443.03 552.864 1444.53C555.235 1445.99 557.32 1447.41 559.046 1448.76C561.322 1450.55 562.931 1452.19 563.783 1453.72C564.926 1455.76 564.718 1457.74 562.929 1459.11C559.977 1461.39 556.057 1459.77 551.394 1455.52C549.665 1453.95 547.853 1452.03 545.989 1449.83C544.147 1447.66 542.352 1445.33 540.674 1443.01L540.244 1442.41L539.38 1441.18L538.286 1442.11C536.541 1443.56 534.687 1445.01 532.801 1446.36C531.197 1447.52 529.64 1448.55 528.152 1449.44L527.287 1449.94C520.735 1453.64 515.955 1454.08 514.356 1449.28C512.548 1443.86 517.946 1440.64 527.516 1438.75C530.274 1438.21 533.218 1437.82 536.161 1437.55L537.647 1437.43L539.005 1437.34C539.523 1437.31 539.896 1437.29 540.099 1437.28ZM543.612 1442.42L543.875 1442.78C545.22 1444.59 546.629 1446.38 548.063 1448.07C549.857 1450.19 551.591 1452.03 553.224 1453.51C556.982 1456.93 559.796 1458.1 561.272 1456.96C561.891 1456.48 561.943 1456 561.41 1455.04C560.772 1453.9 559.383 1452.48 557.366 1450.9C555.731 1449.62 553.728 1448.25 551.439 1446.84C549.54 1445.67 547.53 1444.52 545.497 1443.42L543.969 1442.61L543.612 1442.42ZM536.225 1440.28L534.979 1440.4C532.604 1440.65 530.253 1440.99 528.041 1441.42L526.926 1441.65C519.668 1443.23 515.99 1445.58 516.935 1448.42C517.761 1450.9 521.135 1450.44 526.763 1447.1C528.177 1446.26 529.67 1445.27 531.213 1444.16C532.677 1443.1 534.126 1441.99 535.516 1440.86L536.225 1440.28Z" fill="#CCD7EE"/>
<path d="M551.503 1425.03C552.189 1425.1 552.709 1425.66 552.738 1426.33L552.734 1426.51L551.712 1437.74C551.644 1438.49 550.983 1439.04 550.235 1438.97C549.549 1438.91 549.029 1438.35 549 1437.68L549.004 1437.5L550.026 1426.26C550.088 1425.58 550.649 1425.06 551.318 1425.03L551.503 1425.03Z" fill="#CCD7EE"/>
<path d="M533.635 1421.46C534.321 1421.52 534.841 1422.08 534.871 1422.75L534.866 1422.94L533.844 1434.17C533.776 1434.92 533.115 1435.47 532.367 1435.4C531.682 1435.34 531.161 1434.78 531.132 1434.11L531.136 1433.92L532.158 1422.69C532.221 1422.01 532.782 1421.49 533.451 1421.46L533.635 1421.46Z" fill="#CCD7EE"/>
<path fill-rule="evenodd" clip-rule="evenodd" d="M376.573 1415.31C379.042 1274.98 432.113 979.17 439.735 902.983C447.36 826.797 420.242 800.994 394.246 813.564C368.247 826.138 360.466 1001.92 360.466 1001.92C360.466 1001.92 358.678 1036.32 351.892 1075.5C327.362 1217.13 344.58 1417.32 344.58 1417.32C344.58 1417.32 349.335 1430.36 363.726 1428.63C378.112 1426.89 376.573 1415.31 376.573 1415.31Z" fill="#FFC999"/>
<path fill-rule="evenodd" clip-rule="evenodd" d="M392.313 783.699L394.045 773.197C394.045 773.197 440.828 773.237 496.653 773.581C497.035 778.939 498.568 785.45 498.568 785.45C498.568 785.45 458.232 798.978 392.313 783.699Z" fill="#002AB2"/>
<path fill-rule="evenodd" clip-rule="evenodd" d="M505.746 708.61L501.817 718.649C501.817 718.649 500.738 768.248 500.738 772.178C447.135 780.854 392.853 771.497 392.853 771.497L393.117 753.139L388.752 696.824L505.746 708.61Z" fill="white"/>
<path d="M504.933 707.856C505.109 707.407 505.615 707.186 506.064 707.361C506.463 707.517 506.683 707.935 506.603 708.341L506.559 708.492L502.684 718.389L501.121 771.261C501.107 771.943 501.1 772.421 501.1 772.686C501.1 773.106 500.8 773.467 500.387 773.544C469.466 779.281 437.825 778.964 408.719 774.983C404.568 774.416 400.8 773.811 397.46 773.203L396.362 773C395.309 772.803 394.365 772.617 393.535 772.446L391.894 772.095C391.532 772.011 391.268 771.71 391.224 771.352L391.219 771.196L392.246 752.652C392.273 752.171 392.684 751.802 393.166 751.829C393.593 751.853 393.932 752.181 393.983 752.591L393.989 752.749L393.001 770.55L393.408 770.637C394.028 770.767 394.722 770.907 395.485 771.056L396.684 771.285C400.262 771.956 404.373 772.627 408.956 773.254C437.262 777.125 467.987 777.512 498.064 772.191L499.361 771.954L499.503 766.121L500.22 741.636L500.945 718.186L501.004 717.896L504.933 707.856Z" fill="black"/>
<path fill-rule="evenodd" clip-rule="evenodd" d="M559.101 523.563C559.101 523.563 585.504 519.733 592.48 547.641C618.062 556.944 611.086 584.85 611.086 584.85C611.086 584.85 623.933 606.774 598.41 618.005C596.366 640.468 570.844 636.382 570.844 636.382C570.844 636.382 564.717 653.74 545.318 646.594C524.389 662.874 499.452 642.993 499.452 642.993C499.452 642.993 476.196 652.296 466.896 642.993C445.964 649.97 422.706 624.387 422.706 624.387C422.706 624.387 409.64 627.706 400.338 606.774C376.038 610.545 349.491 579.576 371.749 550.618C357.148 527.505 373.79 513.862 373.79 513.862C373.79 513.862 369.196 460.769 405.953 453.623C424.839 425.034 465.681 448.008 465.681 448.008C465.681 448.008 492.737 442.392 502.437 465.876C532.67 470.527 531.252 487.145 533.579 501.1C560.632 502.631 559.101 523.563 559.101 523.563Z" fill="black"/>
<path fill-rule="evenodd" clip-rule="evenodd" d="M475.211 497.638C454.01 501.358 447.569 485.318 447.569 485.318C447.569 485.318 438.823 462.727 436.583 476.596C435.391 483.968 423.996 474.186 418.757 482.045C415.231 487.332 424.047 494.148 412.59 508.246C405.952 516.413 432.131 522.933 415.981 537.988C415.981 537.988 427.465 556.365 407.738 562.36L403.376 583.757L448.838 583.687L447.375 559.047C478.005 559.047 479.501 516.946 475.211 497.638Z" fill="#FFC999"/>
<path d="M436.13 520.048C436.661 519.517 437.522 519.517 438.053 520.048L438.33 520.303C438.457 520.413 438.619 520.547 438.813 520.701C439.477 521.226 440.258 521.754 441.145 522.247C444.153 523.92 447.586 524.786 451.365 524.42C452.112 524.347 452.777 524.894 452.849 525.642C452.922 526.389 452.375 527.053 451.627 527.126C447.255 527.55 443.285 526.549 439.824 524.623C438.068 523.647 436.82 522.661 436.13 521.971C435.599 521.44 435.599 520.579 436.13 520.048Z" fill="#F5222D"/>
<path d="M452.856 498.796C453.393 498.835 453.811 499.259 453.858 499.778L453.86 499.967C453.834 500.685 453.976 501.89 454.449 503.528C455.212 506.166 456.637 509.128 458.893 512.36C459.248 512.868 459.105 513.57 458.58 513.899L457.173 514.773C455.351 515.893 453.744 516.834 452.348 517.609L451.835 517.893C451.444 518.106 451.089 518.296 450.767 518.465L449.668 519.02C449.641 519.033 449.617 519.044 449.597 519.053C449.053 519.304 448.41 519.067 448.159 518.523C447.908 517.98 448.145 517.336 448.688 517.085L449.192 516.838L450.085 516.374C450.306 516.256 450.543 516.129 450.794 515.991C452.089 515.283 453.589 514.416 455.297 513.379L456.474 512.655L456.205 512.244C454.474 509.558 453.281 507.035 452.542 504.708L452.367 504.13C451.877 502.437 451.693 501.098 451.689 500.158L451.698 499.8C451.74 499.203 452.259 498.754 452.856 498.796Z" fill="#DD936F"/>
<path fill-rule="evenodd" clip-rule="evenodd" d="M457.217 753.288C457.217 753.288 515.326 768.698 541.833 750.224C570.645 730.145 535.362 653.737 526.135 633.83C518.214 616.736 500.945 605.661 485.228 603.041C469.764 600.465 457.946 599.548 457.946 599.548L454.549 586.31C454.055 584.382 452.317 583.032 450.327 583.032H403.999C401.828 583.032 399.991 584.629 399.682 586.775L397.893 599.314C397.893 599.314 358.896 597.851 340.439 614.942C322.761 631.313 327.868 668.053 342.698 702.062C357.525 736.072 370.015 763.061 394.809 765.541C440.645 770.124 512.295 730.217 512.295 730.217C512.295 730.217 524.516 723.671 535.868 725.417C533.248 709.7 524.516 698.35 499.197 704.899L408.834 723.671" fill="white"/>
<path fill-rule="evenodd" clip-rule="evenodd" d="M512.73 677.615C512.73 677.615 517.097 692.02 508.039 703.698L509.021 718.758L444.848 753.466C444.848 753.466 514.69 769.568 542.599 753.288C563.531 741.078 557.514 706.349 541.45 671.352C541.45 671.352 528.815 667.524 512.73 677.615Z" fill="#FFC999"/>
<path fill-rule="evenodd" clip-rule="evenodd" d="M387.005 681.544L404.904 720.396L476.489 700.962C497.881 695.285 520.588 703.372 526.263 720.396C515.787 721.706 495.923 726.289 495.923 726.289C495.923 726.289 427.17 769.18 392.462 767.545C367.571 766.37 357.887 737.38 343.057 703.372C343.057 703.372 352.083 684.164 387.005 681.544Z" fill="#FFC999"/>
<path d="M503.563 640.072C504.045 640.072 504.436 640.463 504.436 640.945L504.422 642.161L504.395 643.366C504.378 643.993 504.355 644.655 504.326 645.347C504.212 648.094 504.022 650.841 503.739 653.464L503.605 654.604L504.012 655.024C506.759 657.932 508.95 661.022 510.618 664.273L511.025 665.089C515.947 675.29 515.625 686.158 512.139 696.415C511.579 698.06 510.98 699.546 510.379 700.848L510.074 701.494L509.564 702.49C509.328 702.91 508.796 703.06 508.375 702.824C507.955 702.588 507.806 702.056 508.041 701.636L508.291 701.163C508.428 700.893 508.598 700.543 508.794 700.118C509.37 698.869 509.947 697.439 510.486 695.854C513.838 685.991 514.147 675.576 509.453 665.847C507.692 662.198 505.25 658.747 502.071 655.527C501.883 655.337 501.793 655.071 501.826 654.806C502.204 651.777 502.447 648.526 502.583 645.274L502.65 643.318L502.689 641.221L502.691 640.945C502.691 640.463 503.081 640.072 503.563 640.072Z" fill="black"/>
<path d="M439.316 599.095C439.798 599.095 440.189 599.486 440.189 599.968C440.189 600.396 439.88 600.753 439.473 600.826L439.316 600.841H397.6C397.118 600.841 396.728 600.45 396.728 599.968C396.728 599.539 397.036 599.183 397.443 599.109L397.6 599.095H439.316Z" fill="black"/>
<path d="M458.922 599.22C459.062 598.675 459.618 598.347 460.163 598.487C460.654 598.613 460.969 599.076 460.924 599.564L460.896 599.728L447.145 653.205C446.959 653.929 446.099 654.196 445.537 653.76L445.413 653.647L395.43 600.17C395.045 599.759 395.067 599.114 395.478 598.729C395.844 598.388 396.394 598.367 396.782 598.655L396.919 598.778L445.632 650.898L458.922 599.22Z" fill="black"/>
<path fill-rule="evenodd" clip-rule="evenodd" d="M460.632 658.906C465.258 666.708 463.171 676.492 455.977 680.76C448.777 685.029 439.192 682.162 434.566 674.362C429.94 666.56 432.024 656.776 439.221 652.508C446.421 648.24 456.003 651.104 460.632 658.906Z" fill="#464646"/>
<path fill-rule="evenodd" clip-rule="evenodd" d="M462.292 658.868C466.92 666.67 464.833 676.454 457.636 680.72C450.439 684.988 440.854 682.124 436.228 674.321C431.603 666.519 433.687 656.738 440.884 652.47C448.081 648.201 457.666 651.066 462.292 658.868Z" fill="black"/>
<path fill-rule="evenodd" clip-rule="evenodd" d="M459.356 660.227C462.946 666.284 461.327 673.881 455.738 677.195C450.152 680.508 442.711 678.284 439.12 672.227C435.527 666.168 437.143 658.573 442.732 655.259C448.321 651.943 455.762 654.17 459.356 660.227Z" fill="#C961DE"/>
<path d="M426.896 553.934C427.182 553.408 427.84 553.213 428.366 553.499C434.295 556.725 440.438 558.345 446.603 558.429C447.202 558.437 447.68 558.929 447.672 559.528C447.664 560.126 447.172 560.605 446.574 560.597C440.055 560.508 433.567 558.796 427.33 555.404C426.805 555.118 426.61 554.459 426.896 553.934Z" fill="#DD936F"/>
<path fill-rule="evenodd" clip-rule="evenodd" d="M436.414 711.681C436.414 711.681 410.275 689.781 394.211 690.929C378.929 692.021 369.764 704.463 372.381 711.447C372.381 711.447 368.892 717.56 374.564 719.524C373.801 723.999 380.239 723.671 380.239 723.671C380.239 723.671 379.15 726.508 383.733 727.162C388.316 727.818 393.377 718.429 405.275 720.36L436.414 711.681Z" fill="#FFC999"/>
<path d="M393.556 689.275C386.398 689.786 378.717 694.885 373.198 701.697C370.882 704.555 369.286 707.371 368.837 709.433L368.783 709.71C368.49 711.437 369.082 712.673 370.351 713.078L370.431 713.099L370.332 713.329C369.974 714.206 369.801 715.096 369.892 715.981L369.935 716.293C370.171 717.627 371.029 718.725 372.512 719.495L372.842 719.655L372.842 719.729C372.857 721.861 374.294 723.213 376.51 723.821L376.979 723.937C377.447 724.04 377.913 724.107 378.358 724.146L378.481 724.153L378.49 724.241C378.541 724.644 378.672 725.052 378.903 725.452C379.57 726.604 380.926 727.364 383.005 727.661C384.163 727.827 385.309 727.535 386.667 726.832L387.082 726.609C387.925 726.137 391.142 724.013 391.18 723.989C395.669 721.154 399.47 720.035 404.527 720.856C404.675 720.88 404.827 720.873 404.972 720.836L437.31 712.48C438.171 712.257 438.412 711.15 437.722 710.589L436.557 709.668L435.372 708.756C434.749 708.282 434.08 707.781 433.369 707.258C429.987 704.767 426.35 702.276 422.596 699.95C418.264 697.265 414.055 694.975 410.067 693.201C403.963 690.485 398.602 689.074 394.157 689.242L393.556 689.275ZM409.186 695.181C413.075 696.912 417.201 699.156 421.455 701.793C425.155 704.086 428.745 706.545 432.084 709.003L433.642 710.165L434.644 710.928L404.643 718.681L404.874 718.717C399.436 717.834 395.252 718.97 390.585 721.807L390.023 722.156C389.922 722.22 386.785 724.291 386.024 724.717C384.856 725.37 384.02 725.616 383.312 725.515C381.838 725.305 381.075 724.877 380.779 724.366C380.657 724.155 380.619 723.923 380.639 723.699L380.677 723.486C380.937 722.806 380.469 722.086 379.762 722.019L379.561 722.016C378.846 722.036 377.935 721.964 377.084 721.731C375.509 721.299 374.82 720.54 375.061 719.133C375.15 718.61 374.848 718.099 374.347 717.926C372.786 717.385 372.14 716.66 372.048 715.76C371.983 715.121 372.193 714.364 372.6 713.592C372.822 713.171 373.043 712.849 373.174 712.686C373.825 711.879 373.08 710.706 372.072 710.953L371.682 711.04C370.813 711.203 370.724 710.954 370.955 709.894C371.319 708.223 372.76 705.681 374.882 703.061C380.059 696.672 387.25 691.899 393.711 691.437C397.847 691.141 403.1 692.474 409.186 695.181Z" fill="#DD936F"/>
<path d="M393.422 696.838C394.016 696.764 394.557 697.185 394.632 697.779C394.706 698.373 394.284 698.915 393.69 698.989C389.568 699.505 385.101 701.857 380.606 705.469C378.785 706.932 377.085 708.502 375.556 710.071L374.8 710.863L373.884 711.87C373.776 711.993 373.697 712.085 373.648 712.144C373.263 712.602 372.579 712.662 372.121 712.277C371.662 711.893 371.603 711.209 371.987 710.75L372.525 710.137C372.953 709.66 373.448 709.129 374.004 708.559C375.591 706.93 377.353 705.301 379.248 703.779C384.028 699.939 388.823 697.413 393.422 696.838Z" fill="#DD936F"/>
<path d="M400.631 702.69C401.229 702.671 401.73 703.139 401.75 703.738C401.77 704.336 401.301 704.837 400.703 704.857C400.341 704.869 399.975 704.893 399.607 704.927C394.491 705.412 388.93 708.033 383.316 712.112C381.103 713.719 379.036 715.443 377.175 717.166C376.686 717.618 376.239 718.046 375.836 718.442L374.92 719.367C374.892 719.397 374.868 719.423 374.848 719.445C374.439 719.882 373.754 719.907 373.316 719.498C372.878 719.09 372.854 718.404 373.262 717.967L373.911 717.299L374.749 716.476C375.047 716.188 375.366 715.887 375.702 715.575C377.623 713.797 379.755 712.019 382.042 710.358C387.942 706.072 393.828 703.297 399.402 702.769C399.815 702.73 400.224 702.704 400.631 702.69Z" fill="#DD936F"/>
<path d="M400.597 709.582C401.195 709.544 401.71 709.998 401.748 710.595C401.786 711.192 401.332 711.707 400.735 711.745C398.885 711.863 396.586 712.658 393.96 714.033C392.109 715.002 390.143 716.234 388.112 717.667C386.237 718.991 384.41 720.411 382.707 721.832L381.859 722.549L380.531 723.715C380.09 724.12 379.405 724.091 379 723.65C378.595 723.209 378.625 722.523 379.066 722.118L379.673 721.576L380.448 720.903C380.723 720.668 381.013 720.422 381.319 720.167C383.063 718.712 384.935 717.256 386.862 715.896C388.966 714.412 391.01 713.131 392.954 712.113C395.826 710.609 398.39 709.723 400.597 709.582Z" fill="#DD936F"/>
<path d="M376.633 653.177C377.036 653.034 377.475 653.205 377.682 653.564L377.747 653.707L387.392 680.814C387.588 681.366 387.196 681.95 386.611 681.978L386.109 682.01C385.69 682.04 385.204 682.082 384.655 682.136C383.082 682.292 381.327 682.522 379.437 682.84C374.038 683.747 368.641 685.174 363.613 687.229C354.415 690.988 347.522 696.41 343.837 703.761C343.621 704.192 343.097 704.366 342.666 704.15C342.235 703.934 342.061 703.41 342.277 702.979C346.177 695.198 353.398 689.518 362.952 685.613C368.112 683.504 373.631 682.046 379.148 681.119C380.756 680.848 382.27 680.64 383.662 680.486L384.894 680.36L385.363 680.317L376.103 654.292C375.959 653.889 376.131 653.449 376.49 653.243L376.633 653.177Z" fill="black"/>
<path d="M520.816 672.767C527.539 669.864 534.678 668.679 541.728 670.215C542.199 670.318 542.497 670.783 542.395 671.254C542.292 671.725 541.827 672.023 541.356 671.921C534.711 670.472 527.924 671.599 521.508 674.37C520.208 674.931 519.011 675.525 517.932 676.125L517.298 676.485C516.561 676.914 516.049 677.244 515.79 677.427C515.396 677.704 514.851 677.609 514.574 677.215C514.296 676.821 514.391 676.277 514.785 675.999L515.22 675.71C515.564 675.487 515.966 675.241 516.421 674.976C517.717 674.222 519.19 673.47 520.816 672.767Z" fill="black"/>
<path d="M507.639 701.815C507.875 701.265 508.512 701.01 509.062 701.246C512.91 702.895 516.456 705.54 519.685 708.904C521.657 710.958 523.391 713.156 524.876 715.355C525.266 715.932 525.618 716.48 525.932 716.989L526.475 717.902C526.58 718.083 526.657 718.223 526.707 718.318C527.024 718.912 526.727 719.633 526.115 719.849L525.956 719.892L506.196 723.692L440.971 756.43C440.489 756.671 439.914 756.52 439.608 756.098L439.516 755.947C439.274 755.466 439.425 754.89 439.848 754.584L439.999 754.492L505.358 721.689L505.639 721.593L524.04 718.053L523.774 717.627C523.667 717.458 523.555 717.285 523.439 717.109L523.08 716.568C521.66 714.466 520.001 712.364 518.121 710.405C515.079 707.236 511.761 704.761 508.209 703.238C507.658 703.003 507.403 702.365 507.639 701.815Z" fill="#DD936F"/>
<path d="M393.078 783.172C393.256 782.638 393.834 782.35 394.368 782.529L395.464 782.875L396.428 783.164C397.106 783.363 397.854 783.576 398.669 783.8C402.166 784.759 406.17 785.719 410.615 786.616C438.813 792.302 468.83 792.73 497.136 784.472C497.676 784.314 498.242 784.625 498.4 785.165C498.558 785.705 498.247 786.271 497.707 786.429C469.04 794.793 438.706 794.36 410.212 788.614C405.72 787.708 401.671 786.737 398.129 785.766L396.939 785.433C396.369 785.272 395.838 785.116 395.346 784.969L393.983 784.547C393.875 784.513 393.788 784.484 393.721 784.462C393.187 784.283 392.899 783.706 393.078 783.172Z" fill="#253368"/>
<path d="M438.62 498.655C439.342 498.655 439.928 499.24 439.928 499.963C439.928 504.99 436.143 509.108 431.415 509.108C426.689 509.108 422.907 504.99 422.907 499.963C422.907 499.24 423.493 498.655 424.215 498.655C424.938 498.655 425.524 499.24 425.524 499.963C425.524 503.592 428.187 506.492 431.415 506.492C434.646 506.492 437.311 503.592 437.311 499.963C437.311 499.24 437.897 498.655 438.62 498.655Z" fill="#253368"/>
<path d="M471.626 499.554C472.312 499.554 472.867 500.11 472.867 500.795C472.867 505.762 469.467 509.874 465.145 509.874C460.822 509.874 457.422 505.762 457.422 500.795C457.422 500.11 457.977 499.554 458.663 499.554C459.348 499.554 459.904 500.11 459.904 500.795C459.904 504.484 462.308 507.391 465.145 507.391C467.981 507.391 470.385 504.484 470.385 500.795C470.385 500.11 470.941 499.554 471.626 499.554Z" fill="#253368"/>
<path d="M423.838 484.564C428.832 482.456 434.12 482.668 439.119 484.273C440.555 484.735 441.628 485.201 442.243 485.525C442.882 485.863 443.127 486.654 442.79 487.293C442.452 487.932 441.661 488.177 441.022 487.84L440.693 487.68C440.592 487.633 440.471 487.579 440.333 487.519C439.744 487.263 439.068 487.005 438.318 486.765C433.863 485.334 429.187 485.147 424.855 486.975C424.065 487.309 423.294 487.708 422.545 488.177C421.932 488.56 421.125 488.373 420.742 487.761C420.359 487.148 420.545 486.341 421.158 485.958C422.025 485.415 422.92 484.952 423.838 484.564Z" fill="#253368"/>
<path fill-rule="evenodd" clip-rule="evenodd" d="M494.358 783.153C517.328 784.683 573.487 929.09 594.672 980.714C592.049 991.192 575.528 1009.81 575.528 1009.81C575.528 1009.81 577.413 1018.11 578.573 1023.09C559.176 1039.43 521.4 1048.62 521.4 1048.62V1055.76C461.159 1084.35 379.749 1058.57 379.749 1058.57C379.749 1058.57 378.216 1057.04 379.238 1051.42C351.736 1051.42 292.455 1017.22 292.455 1017.22L300.623 999.861L276.119 975.354C276.119 975.354 350.999 847.296 363.755 819.143C377.964 787.787 393.662 781.964 393.662 781.964C393.662 781.964 453.596 780.434 494.358 783.153Z" fill="#002AB2"/>
<path d="M365.045 863.627C365.287 863.119 365.895 862.904 366.404 863.146C366.861 863.364 367.081 863.878 366.944 864.349L366.885 864.504L294.755 1015.87L295.662 1016.52L296.432 1017.06C298.374 1018.41 300.662 1019.91 303.283 1021.53C310.777 1026.16 319.422 1030.79 329.098 1035.11C344.633 1042.05 361.312 1047.51 378.921 1050.93C379.474 1051.04 379.835 1051.57 379.727 1052.13C379.62 1052.68 379.085 1053.04 378.532 1052.93C360.763 1049.48 343.938 1043.97 328.267 1036.97C318.504 1032.61 309.78 1027.94 302.211 1023.26C299.854 1021.81 297.761 1020.44 295.94 1019.2L295.27 1018.74C294.855 1018.45 294.474 1018.18 294.126 1017.93L293.156 1017.23C293.02 1017.13 292.919 1017.05 292.855 1017C292.52 1016.75 292.382 1016.32 292.491 1015.92L292.553 1015.76L365.045 863.627Z" fill="black"/>
<path d="M511.596 850.355C512.068 850.17 512.594 850.361 512.844 850.784L512.917 850.933L580.546 1023.74C580.72 1024.19 580.562 1024.69 580.166 1024.96L579.691 1025.27C579.306 1025.52 578.851 1025.81 578.33 1026.14L576.997 1026.96C575.838 1027.67 574.558 1028.42 573.166 1029.22C567.601 1032.4 561.368 1035.59 554.615 1038.56C543.901 1043.27 532.901 1047 521.869 1049.36C521.319 1049.48 520.777 1049.13 520.659 1048.58C520.541 1048.03 520.891 1047.48 521.442 1047.37C532.328 1045.03 543.199 1041.35 553.794 1036.69C560.479 1033.75 566.648 1030.6 572.154 1027.45C574.079 1026.35 575.784 1025.33 577.248 1024.41L578.345 1023.71L511.019 851.676C510.834 851.204 511.025 850.678 511.447 850.428L511.596 850.355Z" fill="black"/>
<path d="M473.47 810.488C474.021 810.373 474.562 810.726 474.677 811.277L478.357 828.992C479.666 835.324 481.059 842.102 482.525 849.264L483.862 855.811C490.221 886.981 496.58 918.777 502.577 949.622L504.069 957.313C505.171 963.008 506.251 968.625 507.308 974.157L509.598 986.193C514.537 1012.29 518.846 1035.94 522.403 1056.61C522.487 1057.1 522.206 1057.58 521.738 1057.75C518.325 1058.95 514.862 1060.06 511.353 1061.07C474.789 1071.57 435.799 1071.23 399.086 1064.36C393.457 1063.31 388.382 1062.18 383.944 1061.05L382.452 1060.67C381.976 1060.54 381.522 1060.42 381.089 1060.3L379.311 1059.8C378.901 1059.68 378.605 1059.59 378.426 1059.54C377.982 1059.4 377.695 1058.99 377.708 1058.53L377.729 1058.36L412.972 883.797C413.083 883.246 413.621 882.889 414.173 883C414.669 883.1 415.008 883.546 414.99 884.036L414.97 884.201L379.912 1057.85L381.628 1058.34C382.481 1058.57 383.422 1058.82 384.446 1059.08C388.844 1060.2 393.876 1061.32 399.461 1062.36C435.889 1069.18 474.576 1069.51 510.79 1059.11C513.567 1058.31 516.313 1057.45 519.029 1056.53L520.246 1056.11L518.932 1048.54C515.554 1029.24 511.58 1007.58 507.099 983.954L506.094 978.671C504.788 971.811 503.444 964.817 502.067 957.7C496.628 929.587 490.86 900.564 485.042 871.845L479.229 843.333L472.682 811.695C472.566 811.144 472.919 810.604 473.47 810.488Z" fill="black"/>
<path d="M444.365 813.788C444.871 813.817 445.271 814.208 445.325 814.696L445.329 814.862L436.414 983.065C436.384 983.627 435.904 984.059 435.342 984.031C434.836 984.002 434.436 983.611 434.382 983.123L434.378 982.957L443.293 814.754C443.323 814.191 443.803 813.76 444.365 813.788Z" fill="black"/>
<path d="M414.515 788.194C414.691 787.659 415.267 787.368 415.802 787.543C416.283 787.701 416.567 788.184 416.491 788.668L416.452 788.83L382.761 891.44C382.586 891.975 382.01 892.266 381.475 892.091C380.994 891.933 380.71 891.45 380.786 890.966L380.825 890.804L414.515 788.194Z" fill="black"/>
<path fill-rule="evenodd" clip-rule="evenodd" d="M345.532 1421.28C345.206 1422.72 340.317 1371.34 340.551 1356.19C360.845 1358.87 379.607 1356.96 379.607 1356.96C379.607 1356.96 376.926 1415.54 377.692 1421.28C363.142 1430.09 345.532 1421.28 345.532 1421.28Z" fill="#597EF7"/>
<path fill-rule="evenodd" clip-rule="evenodd" d="M349.697 1490.8C352.217 1511.11 363.142 1521.85 374.413 1523.04C388.372 1524.51 403.57 1520.58 406.025 1508.07C408.828 1493.79 401.477 1486.48 393.266 1466.06C385.055 1445.64 381.137 1428.17 378.076 1413.63C378.076 1413.63 367.609 1407.5 370.417 1425.11C372.692 1439.37 378.203 1479.48 387.901 1482.29C378.456 1481.52 359.057 1488.92 359.057 1488.92C359.057 1488.92 365.95 1478.2 365.441 1474.63C364.93 1471.06 359.226 1434.44 358.933 1423.58C358.64 1412.84 349.321 1414.13 344.829 1415.39C343.431 1415.78 342.541 1417.13 342.71 1418.58C343.135 1422.15 348.506 1481.18 349.697 1490.8Z" fill="#4E5C93"/>
<path fill-rule="evenodd" clip-rule="evenodd" d="M354.719 1436.98C354.719 1436.98 343.076 1412.61 354.719 1410.18C363.909 1408.27 372.714 1407.88 373.862 1410.18C374.29 1411.04 374.247 1418.99 377.308 1435.45C380.885 1454.67 390.026 1477.21 393.391 1481.78C398.751 1489.05 393.006 1489.43 379.989 1492.88C366.972 1496.33 362.379 1496.33 358.931 1489.43C355.485 1482.54 355.485 1451.91 354.719 1436.98Z" fill="#4E5C93"/>
<path d="M377.199 1442.99C377.898 1442.72 378.686 1443.06 378.958 1443.76C379.231 1444.46 378.884 1445.25 378.184 1445.52C376.591 1446.14 374.83 1447 372.932 1448.07C371.106 1449.1 369.183 1450.31 367.195 1451.66C365.286 1452.96 363.398 1454.33 361.584 1455.72L360.57 1456.51L360.634 1456.51C362.167 1456.57 363.794 1456.74 365.506 1457.02L366.369 1457.17C369.716 1457.77 373.265 1458.74 376.893 1459.98C379.116 1460.73 381.233 1461.54 383.176 1462.35L384.145 1462.77L385.672 1463.45C386.909 1464.03 386.609 1465.87 385.251 1466.03C380.123 1466.63 374.614 1469.38 369.098 1473.6C366.865 1475.31 364.786 1477.14 362.919 1478.98C362.527 1479.36 362.162 1479.73 361.825 1480.08L361.189 1480.74C360.893 1481.06 360.692 1481.28 360.593 1481.4C360.099 1481.96 359.24 1482.02 358.675 1481.52C358.11 1481.03 358.052 1480.17 358.547 1479.61L359.025 1479.08L359.204 1478.89C359.728 1478.33 360.333 1477.71 361.014 1477.04C362.957 1475.13 365.118 1473.22 367.445 1471.44C371.671 1468.21 375.921 1465.77 380.099 1464.41L380.615 1464.25L379.783 1463.92C378.977 1463.61 378.148 1463.3 377.3 1463L376.016 1462.55C372.508 1461.35 369.085 1460.42 365.887 1459.84C362.374 1459.21 359.269 1459.03 356.69 1459.39C355.345 1459.57 354.591 1457.88 355.625 1457L356.418 1456.34L357.646 1455.35C357.938 1455.12 358.243 1454.87 358.56 1454.63C360.822 1452.85 363.224 1451.07 365.666 1449.41C367.713 1448.02 369.7 1446.77 371.597 1445.7C373.599 1444.57 375.473 1443.66 377.199 1442.99Z" fill="#CCD7EE"/>
<path d="M356.214 1446.5C358.844 1445.92 362.028 1445.89 365.657 1446.33C368.564 1446.68 371.651 1447.31 374.796 1448.15C376.185 1448.51 377.516 1448.9 378.763 1449.3L380.067 1449.72L381.612 1450.26C382.794 1450.7 382.793 1452.37 381.611 1452.81C377.09 1454.48 372.692 1457.1 368.501 1460.42C366.149 1462.28 363.987 1464.25 362.049 1466.25L361.01 1467.34L360.484 1467.91L362.22 1467.95C362.698 1467.96 363.192 1467.97 363.701 1467.99L364.475 1468.03C368.388 1468.19 372.251 1468.52 375.872 1469.05C382.419 1470 387.597 1471.52 390.953 1473.75C391.578 1474.17 391.747 1475.01 391.33 1475.64C390.914 1476.26 390.07 1476.43 389.445 1476.02C386.505 1474.06 381.66 1472.64 375.48 1471.74C371.959 1471.23 368.185 1470.91 364.358 1470.74C362.565 1470.66 360.938 1470.63 359.545 1470.62L357.557 1470.63C356.413 1470.65 355.752 1469.34 356.455 1468.44L357.022 1467.74L357.191 1467.54C357.781 1466.84 358.469 1466.07 359.25 1465.24C361.479 1462.87 364.015 1460.5 366.814 1458.28C370.041 1455.73 373.396 1453.56 376.854 1451.89L377.282 1451.68L377.023 1451.6C376.399 1451.41 375.757 1451.23 375.098 1451.04L374.1 1450.77C371.068 1449.97 368.1 1449.36 365.332 1449.03C361.982 1448.62 359.088 1448.65 356.803 1449.15C356.07 1449.32 355.344 1448.85 355.181 1448.12C355.018 1447.39 355.481 1446.66 356.214 1446.5Z" fill="#CCD7EE"/>
<path fill-rule="evenodd" clip-rule="evenodd" d="M350.89 1494.8C350.89 1494.8 378.456 1471.82 403.727 1488.67C410.044 1502.75 406.392 1511.12 403.345 1515.47C402.083 1517.27 399.692 1519.78 397.63 1520.52C391.476 1522.74 375.342 1527.2 363.909 1519.68C349.359 1510.11 350.89 1494.8 350.89 1494.8Z" fill="#CCD7EE"/>
<path d="M401.603 1488.54C401.955 1488.35 402.393 1488.49 402.58 1488.84C406.146 1495.53 402.404 1504.2 397.236 1507.65C393.557 1510.1 380.573 1512.32 370.258 1511.85C365.134 1511.62 361.015 1508.45 357.805 1503.35C356.651 1501.52 355.697 1499.57 354.929 1497.61C354.727 1497.1 354.549 1496.61 354.395 1496.16L354.131 1495.35C354.081 1495.19 354.045 1495.07 354.022 1494.99C353.917 1494.6 354.143 1494.2 354.528 1494.1C354.913 1493.99 355.31 1494.22 355.415 1494.6L355.621 1495.27L355.917 1496.14C356.026 1496.44 356.144 1496.76 356.273 1497.09C357.01 1498.96 357.926 1500.84 359.027 1502.58C362.01 1507.32 365.756 1510.2 370.324 1510.41C380.36 1510.87 393.065 1508.69 396.435 1506.45C401.049 1503.37 404.467 1495.45 401.306 1489.52C401.118 1489.17 401.251 1488.73 401.603 1488.54Z" fill="#A3B5D6"/>
<path d="M340.373 1365.1C340.53 1364.36 341.253 1363.9 341.987 1364.05L343.126 1364.28L343.705 1364.38C345.106 1364.63 346.699 1364.88 348.453 1365.11C357.263 1366.28 366.418 1366.6 374.945 1365.55C375.801 1365.44 376.646 1365.32 377.478 1365.19C378.219 1365.07 378.916 1365.57 379.035 1366.32C379.154 1367.06 378.649 1367.75 377.908 1367.87C377.043 1368.01 376.166 1368.14 375.278 1368.25C366.489 1369.33 357.115 1369 348.095 1367.81C346.599 1367.61 345.217 1367.4 343.965 1367.19L342.517 1366.93L341.418 1366.71C340.684 1366.55 340.216 1365.83 340.373 1365.1Z" fill="#CCD7EE"/>
<path d="M365.051 1431.16L365.236 1431.15L366.33 1431.21C367.189 1431.26 368.145 1431.33 369.174 1431.43C372.117 1431.69 375.061 1432.08 377.819 1432.63C387.389 1434.51 392.787 1437.73 390.979 1443.15C389.309 1448.16 384.176 1447.47 377.183 1443.31C375.695 1442.43 374.137 1441.39 372.533 1440.24C370.647 1438.88 368.793 1437.43 367.048 1435.98L366.601 1435.6L365.954 1435.05L365.09 1436.28L364.661 1436.88C362.982 1439.21 361.187 1441.53 359.344 1443.7C357.481 1445.9 355.669 1447.82 353.94 1449.4C349.278 1453.64 345.358 1455.26 342.405 1452.99C340.617 1451.61 340.408 1449.64 341.55 1447.59C342.402 1446.07 344.01 1444.43 346.285 1442.64C348.012 1441.28 350.098 1439.86 352.47 1438.4C354.901 1436.9 357.5 1435.44 360.099 1434.08L361.411 1433.39L363.574 1432.31C363.63 1432.28 363.687 1432.26 363.745 1432.24L363.861 1432.21L363.889 1432.1C364.05 1431.59 364.506 1431.21 365.051 1431.16ZM361.719 1436.3L361.365 1436.48C358.817 1437.82 356.269 1439.26 353.896 1440.72C351.605 1442.13 349.6 1443.49 347.965 1444.78C345.949 1446.36 344.562 1447.78 343.924 1448.92C343.392 1449.87 343.443 1450.36 344.063 1450.83C345.538 1451.97 348.353 1450.8 352.111 1447.39C353.743 1445.9 355.477 1444.06 357.271 1441.95C358.705 1440.25 360.114 1438.46 361.46 1436.65L361.719 1436.3ZM369.106 1434.15L369.818 1434.74C371.209 1435.86 372.657 1436.98 374.121 1438.03C375.664 1439.14 377.157 1440.13 378.572 1440.97C384.199 1444.32 387.572 1444.77 388.399 1442.3C389.392 1439.32 385.287 1436.87 377.293 1435.29C375.081 1434.86 372.73 1434.52 370.356 1434.27L369.106 1434.15Z" fill="#CCD7EE"/>
<path d="M353.832 1418.91C354.517 1418.85 355.13 1419.3 355.279 1419.96L355.309 1420.14L356.328 1431.37C356.396 1432.12 355.845 1432.78 355.097 1432.85C354.411 1432.91 353.799 1432.45 353.649 1431.8L353.62 1431.62L352.601 1420.38C352.533 1419.64 353.084 1418.98 353.832 1418.91Z" fill="#CCD7EE"/>
<path d="M371.699 1415.33C372.385 1415.27 372.997 1415.73 373.147 1416.38L373.176 1416.57L374.195 1427.8C374.263 1428.54 373.712 1429.21 372.964 1429.27C372.279 1429.34 371.666 1428.88 371.517 1428.22L371.487 1428.04L370.468 1416.81C370.4 1416.06 370.951 1415.4 371.699 1415.33Z" fill="#CCD7EE"/>
</svg>
