<svg width="23" height="24" viewBox="0 0 23 24" fill="none" xmlns="http://www.w3.org/2000/svg">
<path d="M5.67962 3.82038L6.29289 3.20711C6.68342 2.81658 7.31658 2.81658 7.70711 3.20711L10.2929 5.79289C10.6834 6.18342 10.6834 6.81658 10.2929 7.20711L8.50048 8.99952C8.2016 9.2984 8.1275 9.755 8.31653 10.1331C9.40929 12.3186 11.1814 14.0907 13.3669 15.1835C13.745 15.3725 14.2016 15.2984 14.5005 14.9995L16.2929 13.2071C16.6834 12.8166 17.3166 12.8166 17.7071 13.2071L20.2929 15.7929C20.6834 16.1834 20.6834 16.8166 20.2929 17.2071L19.6796 17.8204C17.5683 19.9317 14.2257 20.1693 11.837 18.3777L10.6286 17.4714C8.88504 16.1638 7.33622 14.615 6.02857 12.8714L5.12226 11.663C3.33072 9.2743 3.56827 5.93173 5.67962 3.82038Z" fill="white"/>
</svg>
