<svg width="1440" height="1493" viewBox="0 0 1440 1493" fill="none" xmlns="http://www.w3.org/2000/svg">
<g filter="url(#filter0_f_1_1227)">
<circle cx="783" cy="858" r="280" fill="url(#paint0_radial_1_1227)"/>
</g>
<path d="M786.942 944.215C779.309 1041.26 694.451 1113.74 597.406 1106.11C500.361 1098.48 427.877 1013.62 435.51 916.576C443.142 819.53 528 747.047 625.045 754.679C722.091 762.312 794.574 847.17 786.942 944.215Z" fill="url(#paint1_linear_1_1227)"/>
<path d="M749.021 938.979C749.795 1008.06 695.205 1054.69 627.089 1043.13C558.974 1031.56 503.128 966.185 502.354 897.099C501.579 828.013 556.17 781.383 624.286 792.948C692.401 804.513 748.247 869.893 749.021 938.979Z" fill="url(#paint2_radial_1_1227)"/>
<path d="M739.113 985.067C753.314 1063.46 703.856 1105.71 628.645 1079.43C553.434 1053.14 480.95 968.285 466.749 889.89C452.547 811.495 502.005 769.249 577.217 795.532C652.428 821.814 724.911 906.672 739.113 985.067Z" fill="url(#paint3_radial_1_1227)"/>
<path d="M738.757 985.132C745.844 1024.25 737.034 1054.26 717.174 1071.23C697.315 1088.19 666.297 1092.2 628.764 1079.08C591.233 1065.97 554.36 1038.23 525.093 1003.97C495.826 969.702 474.191 928.946 467.104 889.826C460.017 850.704 468.828 820.695 488.687 803.731C508.547 786.768 539.564 782.757 577.097 795.873C614.629 808.988 651.502 836.728 680.769 870.992C710.036 905.255 731.671 946.012 738.757 985.132Z" stroke="url(#paint4_linear_1_1227)" stroke-opacity="0.2" stroke-width="0.722376"/>
<mask id="path-6-inside-1_1_1227" fill="white">
<path fill-rule="evenodd" clip-rule="evenodd" d="M707.345 1004.43C707.906 996.075 707.179 986.746 705.023 976.564C692.517 917.5 636.672 852.12 580.289 830.534C570.569 826.813 561.468 824.636 553.125 823.885C548.827 767.824 587.932 740.01 646.066 761.262C709.172 784.332 770.805 856.488 783.727 922.425C795.63 983.166 762.044 1017.44 707.345 1004.43Z"/>
</mask>
<path fill-rule="evenodd" clip-rule="evenodd" d="M707.345 1004.43C707.906 996.075 707.179 986.746 705.023 976.564C692.517 917.5 636.672 852.12 580.289 830.534C570.569 826.813 561.468 824.636 553.125 823.885C548.827 767.824 587.932 740.01 646.066 761.262C709.172 784.332 770.805 856.488 783.727 922.425C795.63 983.166 762.044 1017.44 707.345 1004.43Z" fill="url(#paint5_linear_1_1227)"/>
<path d="M705.023 976.564L704.317 976.714L704.317 976.714L705.023 976.564ZM707.345 1004.43L706.624 1004.38L706.583 1004.99L707.178 1005.14L707.345 1004.43ZM580.289 830.534L580.547 829.859L580.547 829.859L580.289 830.534ZM553.126 823.885L552.405 823.94L552.452 824.549L553.061 824.604L553.126 823.885ZM646.066 761.262L645.818 761.941L646.066 761.262ZM783.727 922.425L783.018 922.564L783.018 922.564L783.727 922.425ZM704.317 976.714C706.461 986.841 707.181 996.103 706.624 1004.38L708.066 1004.48C708.632 996.047 707.897 986.65 705.73 976.414L704.317 976.714ZM580.03 831.209C608.081 841.948 636.044 863.604 658.561 889.964C681.077 916.324 698.095 947.329 704.317 976.714L705.73 976.414C699.446 946.735 682.288 915.518 659.659 889.025C637.03 862.533 608.879 840.706 580.547 829.859L580.03 831.209ZM553.061 824.604C561.327 825.349 570.363 827.508 580.03 831.209L580.547 829.859C570.776 826.119 561.61 823.924 553.19 823.165L553.061 824.604ZM553.846 823.829C551.71 795.969 560.363 775.292 576.592 764.177C592.837 753.051 616.879 751.361 645.818 761.941L646.314 760.584C617.119 749.911 592.542 751.502 575.776 762.985C558.993 774.479 550.243 795.74 552.405 823.94L553.846 823.829ZM645.818 761.941C677.226 773.423 708.314 797.142 733.167 826.238C758.019 855.334 776.587 889.747 783.018 922.564L784.436 922.286C777.945 889.166 759.236 854.533 734.265 825.299C709.295 796.066 678.012 772.172 646.314 760.584L645.818 761.941ZM783.018 922.564C788.943 952.801 783.516 976.283 769.987 990.589C756.471 1004.88 734.696 1010.2 707.512 1003.73L707.178 1005.14C734.693 1011.68 757.06 1006.36 771.037 991.582C785 976.817 790.413 952.791 784.436 922.286L783.018 922.564Z" fill="url(#paint6_linear_1_1227)" fill-opacity="0.3" mask="url(#path-6-inside-1_1_1227)"/>
<g style="mix-blend-mode:lighten">
<ellipse cx="609.079" cy="838.599" rx="215.27" ry="209.678" transform="rotate(-130.503 609.079 838.599)" fill="url(#paint7_radial_1_1227)" fill-opacity="0.6"/>
</g>
<g style="mix-blend-mode:lighten">
<path d="M354.26 646.357C478.445 540.281 665.401 555.305 771.838 679.912C878.274 804.52 863.886 991.526 739.701 1097.6C615.516 1203.68 428.56 1188.65 322.124 1064.05C215.687 939.438 230.075 752.432 354.26 646.357Z" fill="url(#paint8_radial_1_1227)" fill-opacity="0.8"/>
</g>
<path d="M705.021 976.563C717.527 1035.63 681.958 1066.01 625.575 1044.42C569.192 1022.84 513.347 957.458 500.84 898.394C488.334 839.33 523.903 808.948 580.286 830.534C636.669 852.119 692.515 917.499 705.021 976.563Z" fill="url(#paint9_radial_1_1227)"/>
<path d="M498.382 1275.56C401.641 1289.41 325.855 1264.08 281.44 1212.09C237.026 1160.09 223.861 1081.28 252.666 987.89C281.472 894.5 346.78 804.3 429.107 733.978C511.435 663.656 610.735 613.252 707.48 599.4C804.222 585.548 880.007 610.872 924.422 662.869C968.836 714.866 982.001 793.679 953.196 887.066C924.39 980.456 859.082 1070.66 776.755 1140.98C694.427 1211.3 595.127 1261.7 498.382 1275.56Z" stroke="url(#paint10_linear_1_1227)" stroke-width="1.20396"/>
<path d="M487.399 1263.1C390.546 1276.97 314.574 1251.62 270.023 1199.46C225.472 1147.31 212.316 1068.31 241.155 974.813C269.994 881.318 335.363 791.045 417.744 720.678C500.124 650.31 599.506 599.857 696.361 585.989C793.215 572.121 869.186 597.465 913.737 649.622C958.288 701.779 971.444 780.778 942.605 874.273C913.767 967.769 848.397 1058.04 766.017 1128.41C683.636 1198.78 584.254 1249.23 487.399 1263.1Z" stroke="url(#paint11_linear_1_1227)" stroke-width="0.240792"/>
<path d="M477.426 1321.7C364.147 1335.71 274.485 1303.92 221.016 1241.32C167.547 1178.73 150.165 1085.2 181.71 975.499C213.255 865.798 287.746 760.769 382.706 679.657C477.666 598.544 593.049 541.389 706.333 527.38C819.612 513.372 909.275 545.162 962.744 607.759C1016.21 670.356 1033.59 763.886 1002.05 873.582C970.504 983.284 896.013 1088.31 801.053 1169.42C706.093 1250.54 590.71 1307.69 477.426 1321.7Z" stroke="url(#paint12_linear_1_1227)" stroke-width="1.20396"/>
<path d="M477.426 1321.7C364.147 1335.71 274.485 1303.92 221.016 1241.32C167.547 1178.73 150.165 1085.2 181.71 975.499C213.255 865.798 287.746 760.769 382.706 679.657C477.666 598.544 593.049 541.389 706.333 527.38C819.612 513.372 909.275 545.162 962.744 607.759C1016.21 670.356 1033.59 763.886 1002.05 873.582C970.504 983.284 896.013 1088.31 801.053 1169.42C706.093 1250.54 590.71 1307.69 477.426 1321.7Z" stroke="url(#paint13_linear_1_1227)" stroke-opacity="0.2" stroke-width="1.20396"/>
<path d="M467.391 1309.92C349.699 1318.75 254.215 1280.19 194.929 1210.78C135.643 1141.38 112.483 1041.04 139.607 926.175C166.733 811.303 239.009 703.694 333.959 622.59C428.91 541.486 546.494 486.921 664.194 478.087C781.886 469.253 877.37 507.813 936.657 577.221C995.943 646.629 1019.1 746.967 991.978 861.831C964.852 976.703 892.577 1084.31 797.626 1165.42C702.675 1246.52 585.091 1301.08 467.391 1309.92Z" stroke="url(#paint14_linear_1_1227)" stroke-width="1.20396"/>
<rect x="438.815" y="851.083" width="4.57311" height="4.57311" transform="rotate(-85.503 438.815 851.083)" fill="#00F0FF" fill-opacity="0.5"/>
<rect x="439.002" y="666.602" width="1.88565" height="1.88565" transform="rotate(-85.503 439.002 666.602)" fill="#00F0FF"/>
<rect width="2.47636" height="2.47636" transform="matrix(-0.078406 0.996921 0.996922 0.0784061 810.796 631.825)" fill="#00F0FF"/>
<rect x="506.94" y="617.146" width="2.85182" height="2.85182" transform="rotate(-85.503 506.94 617.146)" fill="#00F0FF"/>
<rect x="515.123" y="658.705" width="1.69013" height="1.69013" transform="rotate(-85.503 515.123 658.705)" fill="#00F0FF"/>
<rect x="522.315" y="928.761" width="4.57311" height="4.57311" transform="rotate(-85.503 522.315 928.761)" fill="#00F0FF"/>
<rect x="389.653" y="1010.04" width="4.57311" height="4.57311" transform="rotate(-85.503 389.653 1010.04)" fill="#0500FF" fill-opacity="0.5"/>
<rect x="352.729" y="869.548" width="3.19614" height="3.19614" transform="rotate(-85.503 352.729 869.548)" fill="#3DFFFB"/>
<rect x="727.598" y="1073.51" width="5.94404" height="5.94404" transform="rotate(-85.503 727.598 1073.51)" fill="#0500FF" fill-opacity="0.5"/>
<rect width="6.34649" height="6.34649" transform="matrix(0.078411 -0.996921 0.996922 0.0784011 995.14 963.52)" fill="#0066FF" fill-opacity="0.5"/>
<rect width="12.8175" height="12.8175" transform="matrix(0.0784036 -0.996922 0.996921 0.0784085 1047.49 830.173)" fill="#0066FF" fill-opacity="0.5"/>
<rect width="5.96427" height="5.96427" transform="matrix(-0.0784061 0.996922 0.996922 0.0784061 902.012 645.902)" fill="#0066FF" fill-opacity="0.5"/>
<rect width="6.34649" height="6.34649" transform="matrix(0.078411 -0.996921 0.996922 0.0784011 1051.84 647.414)" fill="#0066FF" fill-opacity="0.5"/>
<rect width="6.34649" height="6.34649" transform="matrix(0.0784011 -0.996922 0.996921 0.078411 1074.5 1079.59)" fill="#0066FF" fill-opacity="0.5"/>
<rect x="890.049" y="1192.6" width="6.34649" height="6.34649" transform="rotate(-85.503 890.049 1192.6)" fill="#0500FF" fill-opacity="0.5"/>
<rect width="4.44389" height="4.44388" transform="matrix(0.078399 -0.996922 0.996921 0.0784131 921.912 1037.87)" fill="#0500FF" fill-opacity="0.5"/>
<rect x="940.167" y="1093.36" width="8.26454" height="8.26454" transform="rotate(-85.503 940.167 1093.36)" fill="#0500FF" fill-opacity="0.5"/>
<rect width="5.43657" height="5.43657" transform="matrix(-0.958331 -0.28566 0.285693 -0.958321 790.597 828.559)" fill="#0066FF" fill-opacity="0.5"/>
<rect width="4.25311" height="4.25311" transform="matrix(-0.996921 -0.0784134 0.0783987 -0.996922 686.652 756.283)" fill="#00D1FF"/>
<rect width="5.10915" height="5.10915" transform="matrix(0.958326 0.285676 0.285676 -0.958326 508.079 849.503)" fill="#001AFF" fill-opacity="0.5"/>
<rect x="536.228" y="724.384" width="5.43657" height="5.43657" transform="rotate(-163.401 536.228 724.384)" fill="#0066FF" fill-opacity="0.5"/>
<rect width="5.43657" height="5.43657" transform="matrix(-0.958331 -0.28566 0.285693 -0.958321 901.967 782.969)" fill="#0066FF" fill-opacity="0.5"/>
<rect x="703.674" y="637.686" width="3.93056" height="3.93056" transform="rotate(-175.503 703.674 637.686)" fill="#0500FF" fill-opacity="0.5"/>
<rect width="3.80351" height="3.80351" transform="matrix(-0.958333 -0.285652 0.2857 -0.958319 839.679 903.183)" fill="#0500FF" fill-opacity="0.5"/>
<rect x="889.386" y="897.864" width="7.07358" height="7.07358" transform="rotate(-163.401 889.386 897.864)" fill="#0500FF" fill-opacity="0.5"/>
<rect width="3.04573" height="3.04573" transform="matrix(0.0784165 -0.996921 0.996922 0.0783957 477.552 856.047)" fill="#00FFF0" fill-opacity="0.6"/>
<rect x="450.768" y="1056.89" width="3.43135" height="3.43135" transform="rotate(-85.503 450.768 1056.89)" fill="#00FFF0"/>
<rect width="3.78863" height="3.78863" transform="matrix(-0.0784062 0.996921 0.996922 0.078406 335.837 816.816)" fill="#00FFF0"/>
<rect x="411.59" y="763.159" width="4.03142" height="4.03142" transform="rotate(-85.503 411.59 763.159)" fill="#00FFF0"/>
<rect width="4.03142" height="4.03142" transform="matrix(0.0783984 -0.996922 0.996921 0.0784138 706.409 920.973)" fill="#00FFF0" fill-opacity="0.5"/>
<rect x="601.567" y="969.145" width="2.20999" height="2.20999" transform="rotate(-85.503 601.567 969.145)" fill="#00FFF0" fill-opacity="0.5"/>
<rect x="529.14" y="1105.44" width="4.03142" height="4.03142" transform="rotate(-120.813 529.14 1105.44)" fill="#0500FF" fill-opacity="0.5"/>
<rect x="487.9" y="1013.07" width="2.81467" height="2.81467" transform="rotate(-85.503 487.9 1013.07)" fill="#00D1FF" fill-opacity="0.6"/>
<rect x="515.529" y="1035.61" width="7.58361" height="7.58361" transform="rotate(-85.503 515.529 1035.61)" fill="#6100FF" fill-opacity="0.5"/>
<g opacity="0.5">
<rect x="325.487" y="748.132" width="3.04573" height="3.04573" transform="rotate(-85.5031 325.487 748.132)" fill="#00FFF0" fill-opacity="0.6"/>
<rect width="3.43135" height="3.43135" transform="matrix(0.0784151 -0.996921 0.996922 0.0783971 298.704 948.978)" fill="#00FFF0"/>
<rect width="3.78863" height="3.78863" transform="matrix(-0.078406 0.996922 0.996921 0.0784062 183.773 708.905)" fill="#00FFF0"/>
<rect width="4.03142" height="4.03142" transform="matrix(0.0783982 -0.996922 0.996921 0.078414 259.525 655.244)" fill="#00FFF0"/>
<rect x="554.345" y="813.058" width="4.03142" height="4.03142" transform="rotate(-85.5031 554.345 813.058)" fill="#00FFF0" fill-opacity="0.5"/>
<rect x="449.503" y="861.23" width="2.20999" height="2.20999" transform="rotate(-85.5031 449.503 861.23)" fill="#00FFF0" fill-opacity="0.5"/>
<rect x="377.076" y="997.523" width="4.03142" height="4.03142" transform="rotate(-120.813 377.076 997.523)" fill="#0500FF" fill-opacity="0.5"/>
<rect x="335.837" y="905.157" width="2.81467" height="2.81467" transform="rotate(-85.5031 335.837 905.157)" fill="#00D1FF" fill-opacity="0.6"/>
<rect width="7.58361" height="7.58361" transform="matrix(0.0784018 -0.996922 0.996921 0.0784103 363.464 927.699)" fill="#6100FF" fill-opacity="0.5"/>
</g>
<path d="M696.763 1061.25L691.37 1033.19L718.247 1042.9L723.64 1070.96L696.763 1061.25Z" fill="url(#paint15_linear_1_1227)"/>
<path d="M718.246 1042.9L691.37 1033.19L669.641 1084.42L718.246 1042.9Z" fill="url(#paint16_linear_1_1227)"/>
<path d="M718.247 1042.91L723.672 1070.96L669.642 1084.42L718.247 1042.91Z" fill="url(#paint17_linear_1_1227)"/>
<path d="M498.47 821.452L495.067 803.743L512.026 809.873L515.429 827.581L498.47 821.452Z" fill="url(#paint18_linear_1_1227)"/>
<path d="M512.029 809.871L495.067 803.74L481.354 836.069L512.029 809.871Z" fill="url(#paint19_linear_1_1227)" fill-opacity="0.6"/>
<path d="M512.027 809.87L515.451 827.576L481.353 836.069L512.027 809.87Z" fill="url(#paint20_linear_1_1227)"/>
<path d="M383.749 680.626L377.932 651.387L406.034 661.338L411.851 690.576L383.749 680.626Z" fill="url(#paint21_linear_1_1227)"/>
<path d="M406.035 661.343L377.933 651.393L355.615 704.977L406.035 661.343Z" fill="url(#paint22_linear_1_1227)" fill-opacity="0.6"/>
<path d="M406.034 661.343L411.884 690.573L355.615 704.977L406.034 661.343Z" fill="url(#paint23_linear_1_1227)"/>
<path d="M527.947 975.876L526.236 989.303L536.219 1000.69L548.391 999.433L543.213 984.227L527.947 975.876Z" fill="url(#paint24_linear_1_1227)" fill-opacity="0.7"/>
<path d="M493.444 1026.06L530.188 1016.16L546.787 1013.88L493.444 1026.06Z" fill="url(#paint25_linear_1_1227)" fill-opacity="0.8"/>
<path d="M493.444 1026.06L511.193 994.4L513.705 975.919L493.444 1026.06Z" fill="url(#paint26_linear_1_1227)"/>
<path d="M513.703 975.924L511.196 994.411L526.236 989.304L527.949 975.874L513.703 975.924Z" fill="url(#paint27_linear_1_1227)" fill-opacity="0.6"/>
<path d="M530.185 1016.16L511.197 994.407L526.238 989.299L536.219 1000.69L530.185 1016.16Z" fill="url(#paint28_linear_1_1227)" fill-opacity="0.6"/>
<path d="M530.183 1016.16L546.785 1013.88L548.391 999.43L536.218 1000.69L530.183 1016.16Z" fill="url(#paint29_linear_1_1227)" fill-opacity="0.8"/>
<path d="M493.445 1026.06L538.3 989.378L546.787 1013.88L493.445 1026.06Z" fill="url(#paint30_linear_1_1227)"/>
<path d="M493.444 1026.06L538.297 989.377L513.705 975.917L493.444 1026.06Z" fill="url(#paint31_linear_1_1227)"/>
<path d="M546.785 1013.88L538.3 989.377L543.214 984.223L548.39 999.437L546.785 1013.88Z" fill="url(#paint32_linear_1_1227)" fill-opacity="0.6"/>
<path d="M513.698 975.924L538.296 989.379L543.214 984.226L527.942 975.874L513.698 975.924Z" fill="url(#paint33_linear_1_1227)" fill-opacity="0.6"/>
<path d="M493.033 580.617L520.426 629.843L477.395 621.55L493.033 580.617Z" fill="url(#paint34_linear_1_1227)"/>
<path d="M493.036 580.618L520.429 629.843L600.375 553.12L493.036 580.618Z" fill="url(#paint35_linear_1_1227)"/>
<path d="M426.808 588.036L477.417 621.547L493.035 580.618L426.808 588.036Z" fill="url(#paint36_linear_1_1227)"/>
<path d="M479.212 682.211L477.416 621.544L426.808 588.04L398.822 604.291L407.007 660.725L450.65 697.427L479.212 682.211Z" fill="url(#paint37_linear_1_1227)" fill-opacity="0.5"/>
<path d="M455.908 665.747L504.232 680.432L520.429 629.843L493.036 580.617L441.507 567.715L428.515 616.521L455.908 665.747Z" fill="url(#paint38_radial_1_1227)" fill-opacity="0.5"/>
<path d="M428.516 616.52L455.909 665.746L407.001 660.724L428.516 616.52Z" fill="url(#paint39_linear_1_1227)"/>
<path d="M428.516 616.521L455.909 665.747L600.374 553.118L428.516 616.521Z" fill="url(#paint40_linear_1_1227)" fill-opacity="0.9"/>
<path d="M450.653 697.428L455.909 665.747L407.001 660.725L450.653 697.428Z" fill="url(#paint41_linear_1_1227)" fill-opacity="0.5"/>
<path d="M398.822 604.287L428.515 616.52L407.003 660.729L398.822 604.287Z" fill="url(#paint42_linear_1_1227)" fill-opacity="0.5"/>
<path d="M450.653 697.431L455.909 665.749L504.232 680.435L450.653 697.431Z" fill="url(#paint43_linear_1_1227)"/>
<path d="M398.823 604.286L428.516 616.52L441.508 567.714L398.823 604.286Z" fill="url(#paint44_linear_1_1227)"/>
<path d="M398.823 604.286L428.516 616.52L441.508 567.714L398.823 604.286Z" fill="url(#paint45_linear_1_1227)" fill-opacity="0.6"/>
<path d="M600.376 553.118L455.909 665.749L504.232 680.434L600.376 553.118Z" fill="url(#paint46_linear_1_1227)" fill-opacity="0.9"/>
<path d="M600.376 553.116L428.512 616.516L441.504 567.71L600.376 553.116Z" fill="url(#paint47_linear_1_1227)" fill-opacity="0.9"/>
<defs>
<filter id="filter0_f_1_1227" x="303" y="378" width="960" height="960" filterUnits="userSpaceOnUse" color-interpolation-filters="sRGB">
<feFlood flood-opacity="0" result="BackgroundImageFix"/>
<feBlend mode="normal" in="SourceGraphic" in2="BackgroundImageFix" result="shape"/>
<feGaussianBlur stdDeviation="100" result="effect1_foregroundBlur_1_1227"/>
</filter>
<radialGradient id="paint0_radial_1_1227" cx="0" cy="0" r="1" gradientUnits="userSpaceOnUse" gradientTransform="translate(625 760) rotate(67.3156) scale(409.693)">
<stop stop-color="#2F2F8A"/>
<stop offset="1" stop-color="#2F2F8A" stop-opacity="0"/>
</radialGradient>
<linearGradient id="paint1_linear_1_1227" x1="687.576" y1="772.424" x2="562.209" y2="972.265" gradientUnits="userSpaceOnUse">
<stop stop-color="white"/>
<stop offset="0.165772" stop-color="#71FFF6"/>
<stop offset="0.552083" stop-color="#4F75FF"/>
<stop offset="1" stop-color="#5E64FF" stop-opacity="0"/>
</linearGradient>
<radialGradient id="paint2_radial_1_1227" cx="0" cy="0" r="1" gradientUnits="userSpaceOnUse" gradientTransform="translate(613.265 968.086) rotate(-77.9792) scale(157.011 187.398)">
<stop offset="0.40625" stop-color="#3330B1" stop-opacity="0.1"/>
<stop offset="0.678936" stop-color="#58FFFF" stop-opacity="0.5"/>
<stop offset="1" stop-color="white"/>
</radialGradient>
<radialGradient id="paint3_radial_1_1227" cx="0" cy="0" r="1" gradientUnits="userSpaceOnUse" gradientTransform="translate(601.724 815.165) rotate(123.323) scale(199.8 342.233)">
<stop stop-color="white"/>
<stop offset="0.298196" stop-color="#5EF5FF"/>
<stop offset="0.538073" stop-color="#3432BD"/>
<stop offset="0.914407" stop-color="#171940"/>
</radialGradient>
<linearGradient id="paint4_linear_1_1227" x1="595.607" y1="802.152" x2="546.854" y2="1015.91" gradientUnits="userSpaceOnUse">
<stop stop-color="white"/>
<stop offset="1" stop-color="white" stop-opacity="0"/>
</linearGradient>
<linearGradient id="paint5_linear_1_1227" x1="682.853" y1="795.031" x2="665.689" y2="944.916" gradientUnits="userSpaceOnUse">
<stop stop-color="white"/>
<stop offset="0.502014" stop-color="#4FFFF4" stop-opacity="0.1"/>
<stop offset="1" stop-color="#5ECFFF" stop-opacity="0.6"/>
</linearGradient>
<linearGradient id="paint6_linear_1_1227" x1="668.549" y1="729.682" x2="693.922" y2="1066.35" gradientUnits="userSpaceOnUse">
<stop stop-color="white"/>
<stop offset="1" stop-color="white" stop-opacity="0"/>
</linearGradient>
<radialGradient id="paint7_radial_1_1227" cx="0" cy="0" r="1" gradientUnits="userSpaceOnUse" gradientTransform="translate(609.079 853.461) rotate(80.7781) scale(166.684 171.23)">
<stop offset="0.0729167" stop-color="white"/>
<stop offset="0.507801" stop-color="#C173FF" stop-opacity="0.9"/>
<stop offset="1" stop-color="#0E26FF" stop-opacity="0"/>
</radialGradient>
<radialGradient id="paint8_radial_1_1227" cx="0" cy="0" r="1" gradientUnits="userSpaceOnUse" gradientTransform="translate(562.919 858.366) rotate(-49.5194) scale(234.948 236.158)">
<stop offset="0.0729167" stop-color="#8785FF"/>
<stop offset="1" stop-color="#3E0EFF" stop-opacity="0"/>
</radialGradient>
<radialGradient id="paint9_radial_1_1227" cx="0" cy="0" r="1" gradientUnits="userSpaceOnUse" gradientTransform="translate(508.489 1046.83) rotate(-55.6889) scale(204.144 359.183)">
<stop stop-color="#3330B1"/>
<stop offset="1" stop-color="#0A0926"/>
</radialGradient>
<linearGradient id="paint10_linear_1_1227" x1="344.979" y1="635.486" x2="625.382" y2="963.761" gradientUnits="userSpaceOnUse">
<stop stop-color="#8FBCFF" stop-opacity="0.6"/>
<stop offset="1" stop-color="#8FBCFF" stop-opacity="0"/>
</linearGradient>
<linearGradient id="paint11_linear_1_1227" x1="402.525" y1="702.861" x2="766.095" y2="1128.5" gradientUnits="userSpaceOnUse">
<stop stop-color="#8FBCFF" stop-opacity="0.6"/>
<stop offset="1" stop-color="#8FBCFF" stop-opacity="0"/>
</linearGradient>
<linearGradient id="paint12_linear_1_1227" x1="269.063" y1="546.612" x2="653.421" y2="996.588" gradientUnits="userSpaceOnUse">
<stop stop-color="white" stop-opacity="0.6"/>
<stop offset="0.34375" stop-color="#8FBCFF" stop-opacity="0.6"/>
<stop offset="1" stop-color="#8FBCFF" stop-opacity="0"/>
</linearGradient>
<linearGradient id="paint13_linear_1_1227" x1="620.253" y1="550.784" x2="656.654" y2="708.453" gradientUnits="userSpaceOnUse">
<stop stop-color="#FF48D7"/>
<stop offset="0.234164" stop-color="white" stop-opacity="0.765836"/>
<stop offset="1" stop-color="#FF48D7" stop-opacity="0"/>
</linearGradient>
<linearGradient id="paint14_linear_1_1227" x1="313.387" y1="598.504" x2="591.655" y2="924.279" gradientUnits="userSpaceOnUse">
<stop stop-color="#8FBCFF" stop-opacity="0.6"/>
<stop offset="1" stop-color="#8FBCFF" stop-opacity="0"/>
</linearGradient>
<linearGradient id="paint15_linear_1_1227" x1="689.993" y1="1050.7" x2="725.017" y2="1053.45" gradientUnits="userSpaceOnUse">
<stop stop-color="#6083FF"/>
<stop offset="1" stop-color="#0C1E5E" stop-opacity="0"/>
</linearGradient>
<linearGradient id="paint16_linear_1_1227" x1="698.282" y1="1029.53" x2="669.494" y2="1084.24" gradientUnits="userSpaceOnUse">
<stop offset="0.170794" stop-color="#3D3BA9"/>
<stop offset="0.537799" stop-color="#FF7BE2" stop-opacity="0.8"/>
<stop offset="0.791667" stop-color="white"/>
</linearGradient>
<linearGradient id="paint17_linear_1_1227" x1="669.833" y1="1084.64" x2="721.394" y2="1067.81" gradientUnits="userSpaceOnUse">
<stop stop-color="#3DDCFF"/>
<stop offset="0.427083" stop-color="#9D50FF" stop-opacity="0"/>
<stop offset="0.977116" stop-color="#3DDCFF"/>
</linearGradient>
<linearGradient id="paint18_linear_1_1227" x1="494.198" y1="814.793" x2="516.298" y2="816.531" gradientUnits="userSpaceOnUse">
<stop stop-color="#6083FF"/>
<stop offset="1" stop-color="#0C1E5E" stop-opacity="0"/>
</linearGradient>
<linearGradient id="paint19_linear_1_1227" x1="499.429" y1="801.432" x2="481.262" y2="835.96" gradientUnits="userSpaceOnUse">
<stop offset="0.170794" stop-color="#3D3BA9"/>
<stop offset="0.537799" stop-color="#FF7BE2" stop-opacity="0.8"/>
<stop offset="0.791667" stop-color="white"/>
</linearGradient>
<linearGradient id="paint20_linear_1_1227" x1="481.474" y1="836.21" x2="514.014" y2="825.589" gradientUnits="userSpaceOnUse">
<stop stop-color="#3DDCFF"/>
<stop offset="0.427083" stop-color="#9D50FF" stop-opacity="0.5"/>
<stop offset="0.977116" stop-color="#3DDCFF"/>
</linearGradient>
<linearGradient id="paint21_linear_1_1227" x1="376.615" y1="669.664" x2="413.169" y2="672.299" gradientUnits="userSpaceOnUse">
<stop stop-color="#6083FF"/>
<stop offset="1" stop-color="#0C1E5E" stop-opacity="0"/>
</linearGradient>
<linearGradient id="paint22_linear_1_1227" x1="385.118" y1="647.53" x2="355.461" y2="704.798" gradientUnits="userSpaceOnUse">
<stop offset="0.170794" stop-color="#3D3BA9"/>
<stop offset="0.537799" stop-color="#FF7BE2" stop-opacity="0.8"/>
<stop offset="0.791667" stop-color="white"/>
</linearGradient>
<linearGradient id="paint23_linear_1_1227" x1="355.815" y1="705.209" x2="409.486" y2="687.303" gradientUnits="userSpaceOnUse">
<stop stop-color="#3DDCFF"/>
<stop offset="0.427083" stop-color="#9D50FF" stop-opacity="0.5"/>
<stop offset="0.977116" stop-color="#3DDCFF"/>
</linearGradient>
<linearGradient id="paint24_linear_1_1227" x1="521.502" y1="984.95" x2="545.176" y2="986.389" gradientUnits="userSpaceOnUse">
<stop stop-color="#6587FF"/>
<stop offset="1" stop-color="#D8E0FF" stop-opacity="0.9"/>
</linearGradient>
<linearGradient id="paint25_linear_1_1227" x1="526.82" y1="997.548" x2="544.491" y2="1028.8" gradientUnits="userSpaceOnUse">
<stop offset="0.135417" stop-color="white"/>
<stop offset="0.28125" stop-color="#89F8FF" stop-opacity="0.934673"/>
<stop offset="0.645833" stop-color="#71F6FF" stop-opacity="0.921354"/>
<stop offset="1" stop-color="#4A72FF" stop-opacity="0.9"/>
</linearGradient>
<linearGradient id="paint26_linear_1_1227" x1="493.58" y1="990.503" x2="509.62" y2="1017.47" gradientUnits="userSpaceOnUse">
<stop offset="0.170794" stop-color="#3D3BA9"/>
<stop offset="0.537799" stop-color="#FF7BE2" stop-opacity="0.8"/>
<stop offset="0.791667" stop-color="white"/>
</linearGradient>
<linearGradient id="paint27_linear_1_1227" x1="520.234" y1="970.345" x2="528.367" y2="988.813" gradientUnits="userSpaceOnUse">
<stop offset="0.135417" stop-color="white"/>
<stop offset="0.28125" stop-color="#89F8FF" stop-opacity="0.934673"/>
<stop offset="0.645833" stop-color="#71F6FF" stop-opacity="0.921354"/>
<stop offset="1" stop-color="#4A72FF" stop-opacity="0.9"/>
</linearGradient>
<linearGradient id="paint28_linear_1_1227" x1="517.112" y1="989.355" x2="510.2" y2="1009.11" gradientUnits="userSpaceOnUse">
<stop offset="0.135417" stop-color="white"/>
<stop offset="0.28125" stop-color="#89F8FF" stop-opacity="0.934673"/>
<stop offset="0.645833" stop-color="#71F6FF" stop-opacity="0.921354"/>
<stop offset="1" stop-color="#4A72FF" stop-opacity="0.9"/>
</linearGradient>
<linearGradient id="paint29_linear_1_1227" x1="545.894" y1="999.794" x2="553.206" y2="1013.86" gradientUnits="userSpaceOnUse">
<stop offset="0.135417" stop-color="white"/>
<stop offset="0.28125" stop-color="#89F8FF" stop-opacity="0.934673"/>
<stop offset="0.645833" stop-color="#71F6FF" stop-opacity="0.921354"/>
<stop offset="1" stop-color="#4A72FF" stop-opacity="0.9"/>
</linearGradient>
<linearGradient id="paint30_linear_1_1227" x1="510.182" y1="1045.3" x2="519.233" y2="996.103" gradientUnits="userSpaceOnUse">
<stop stop-color="#3DDCFF"/>
<stop offset="0.427083" stop-color="#9D50FF" stop-opacity="0"/>
<stop offset="0.977116" stop-color="#3DDCFF"/>
</linearGradient>
<linearGradient id="paint31_linear_1_1227" x1="532.162" y1="970.336" x2="528.631" y2="1040.37" gradientUnits="userSpaceOnUse">
<stop offset="0.170794" stop-color="#3D3BA9"/>
<stop offset="0.537799" stop-color="#FF7BE2" stop-opacity="0.8"/>
<stop offset="0.791667" stop-color="white"/>
</linearGradient>
<linearGradient id="paint32_linear_1_1227" x1="545.069" y1="983.595" x2="549.818" y2="1012.93" gradientUnits="userSpaceOnUse">
<stop offset="0.135417" stop-color="white"/>
<stop offset="0.28125" stop-color="#89F8FF" stop-opacity="0.934673"/>
<stop offset="0.645833" stop-color="#71F6FF" stop-opacity="0.921354"/>
<stop offset="1" stop-color="#4A72FF" stop-opacity="0.9"/>
</linearGradient>
<linearGradient id="paint33_linear_1_1227" x1="522.209" y1="985.888" x2="537.614" y2="972.729" gradientUnits="userSpaceOnUse">
<stop stop-color="#3E5ABE"/>
<stop offset="1" stop-color="#3E5ABE" stop-opacity="0"/>
</linearGradient>
<linearGradient id="paint34_linear_1_1227" x1="453.842" y1="666.894" x2="413.723" y2="609.8" gradientUnits="userSpaceOnUse">
<stop stop-color="white"/>
<stop offset="0.227296" stop-color="#47FFDE" stop-opacity="0.8"/>
<stop offset="1" stop-color="#6D61FF" stop-opacity="0.5"/>
</linearGradient>
<linearGradient id="paint35_linear_1_1227" x1="453.844" y1="666.898" x2="413.724" y2="609.804" gradientUnits="userSpaceOnUse">
<stop stop-color="white"/>
<stop offset="0.227296" stop-color="#47FFDE" stop-opacity="0.8"/>
<stop offset="1" stop-color="#6D61FF" stop-opacity="0.5"/>
</linearGradient>
<linearGradient id="paint36_linear_1_1227" x1="438.683" y1="569.287" x2="458.676" y2="609.818" gradientUnits="userSpaceOnUse">
<stop stop-color="white"/>
<stop offset="0.227296" stop-color="#47FFDE" stop-opacity="0.8"/>
<stop offset="1" stop-color="#6D61FF" stop-opacity="0.5"/>
</linearGradient>
<linearGradient id="paint37_linear_1_1227" x1="494.34" y1="612.126" x2="390.082" y2="670.143" gradientUnits="userSpaceOnUse">
<stop stop-color="#6D61FF"/>
<stop offset="1" stop-color="#47FFDE"/>
</linearGradient>
<radialGradient id="paint38_radial_1_1227" cx="0" cy="0" r="1" gradientUnits="userSpaceOnUse" gradientTransform="translate(474.472 623.182) rotate(-119.095) scale(95.5037 54.6676)">
<stop stop-color="#6D61FF"/>
<stop offset="1" stop-color="#47FFDE"/>
</radialGradient>
<linearGradient id="paint39_linear_1_1227" x1="453.843" y1="666.895" x2="413.724" y2="609.801" gradientUnits="userSpaceOnUse">
<stop stop-color="white"/>
<stop offset="0.227296" stop-color="#47FFDE" stop-opacity="0.8"/>
<stop offset="1" stop-color="#6D61FF" stop-opacity="0.5"/>
</linearGradient>
<linearGradient id="paint40_linear_1_1227" x1="438.485" y1="664.053" x2="521.327" y2="706.738" gradientUnits="userSpaceOnUse">
<stop offset="0.0729167" stop-color="#4B86FA" stop-opacity="0.8"/>
<stop offset="0.791667" stop-color="#FCA6EF" stop-opacity="0.8"/>
<stop offset="1" stop-color="white"/>
</linearGradient>
<linearGradient id="paint41_linear_1_1227" x1="455.169" y1="664.418" x2="403.875" y2="662.14" gradientUnits="userSpaceOnUse">
<stop stop-color="#7BFFE7" stop-opacity="0.8"/>
<stop offset="1" stop-color="#322994" stop-opacity="0.5"/>
</linearGradient>
<linearGradient id="paint42_linear_1_1227" x1="429.255" y1="617.849" x2="395.216" y2="611.957" gradientUnits="userSpaceOnUse">
<stop stop-color="#7BFFE7" stop-opacity="0.9"/>
<stop offset="1" stop-color="#322994" stop-opacity="0.5"/>
</linearGradient>
<linearGradient id="paint43_linear_1_1227" x1="501.408" y1="682.006" x2="439.727" y2="659.38" gradientUnits="userSpaceOnUse">
<stop stop-color="white"/>
<stop offset="0.586705" stop-color="#47FFDE" stop-opacity="0.9"/>
<stop offset="1" stop-color="#6D61FF" stop-opacity="0.5"/>
</linearGradient>
<linearGradient id="paint44_linear_1_1227" x1="400.761" y1="604.401" x2="431.928" y2="622.395" gradientUnits="userSpaceOnUse">
<stop stop-color="#0A3892"/>
<stop offset="0.536458" stop-color="#29B2ED" stop-opacity="0.8"/>
<stop offset="0.967948" stop-color="white"/>
</linearGradient>
<linearGradient id="paint45_linear_1_1227" x1="421.654" y1="622.452" x2="419.762" y2="589.806" gradientUnits="userSpaceOnUse">
<stop stop-color="#FF439D"/>
<stop offset="1" stop-color="#FF43D6" stop-opacity="0"/>
</linearGradient>
<linearGradient id="paint46_linear_1_1227" x1="581.434" y1="604.726" x2="542.987" y2="567.798" gradientUnits="userSpaceOnUse">
<stop offset="0.0729167" stop-color="#4B86FA" stop-opacity="0.8"/>
<stop offset="0.791667" stop-color="#FCA6EF" stop-opacity="0.8"/>
<stop offset="1" stop-color="white"/>
</linearGradient>
<linearGradient id="paint47_linear_1_1227" x1="289.226" y1="592.365" x2="361.378" y2="440.023" gradientUnits="userSpaceOnUse">
<stop offset="0.0729167" stop-color="#4B86FA" stop-opacity="0.8"/>
<stop offset="0.791667" stop-color="#FCA6EF" stop-opacity="0.8"/>
<stop offset="1" stop-color="white"/>
</linearGradient>
</defs>
</svg>
