<svg width="1435" height="1206" viewBox="0 0 1435 1206" fill="none" xmlns="http://www.w3.org/2000/svg">
<rect width="1440" height="1024" transform="translate(-5 149)" fill="#0F103F"/>
<g filter="url(#filter0_f_1_1362)">
<circle cx="735.936" cy="603" r="403" fill="url(#paint0_radial_1_1362)" fill-opacity="0.6"/>
</g>
<g style="mix-blend-mode:overlay">
<path d="M644.108 415.331C476.095 434.98 351.474 507.099 351.474 593.058C351.474 694.134 523.781 776.073 736.333 776.073C948.885 776.073 1121.19 694.134 1121.19 593.058C1121.19 504.317 988.375 430.328 812.115 413.59" stroke="url(#paint1_angular_1_1362)" stroke-width="1.70856" stroke-linecap="round"/>
</g>
<g style="mix-blend-mode:overlay">
<path d="M644.108 416.62C476.095 436.269 351.474 508.387 351.474 594.347C351.474 695.423 523.781 777.362 736.333 777.362C948.885 777.362 1121.19 695.423 1121.19 594.347C1121.19 505.606 988.375 431.617 812.115 414.879" stroke="url(#paint2_angular_1_1362)" stroke-width="1.70856" stroke-linecap="round"/>
</g>
<g style="mix-blend-mode:overlay">
<path d="M825.197 419.458C994.906 438.533 1121.19 511.038 1121.19 597.57C1121.19 698.646 948.885 780.585 736.333 780.585C523.781 780.585 351.474 698.646 351.474 597.57C351.474 513.026 472.026 441.871 635.846 420.856" stroke="url(#paint3_angular_1_1362)" stroke-width="1.70856" stroke-linecap="round"/>
</g>
<g style="mix-blend-mode:overlay">
<path d="M622.763 427.81C465.648 450.852 351.474 520.449 351.474 602.726C351.474 703.802 523.781 785.741 736.333 785.741C948.885 785.741 1121.19 703.802 1121.19 602.726C1121.19 517.782 999.497 446.354 834.493 425.718" stroke="url(#paint4_angular_1_1362)" stroke-width="1.70856" stroke-linecap="round"/>
</g>
<g style="mix-blend-mode:overlay">
<path d="M848.608 434.711C1006.39 457.56 1121.19 527.312 1121.19 609.816C1121.19 710.892 948.885 792.831 736.333 792.831C523.781 792.831 351.474 710.892 351.474 609.816C351.474 530.023 458.856 462.157 608.648 437.114" stroke="url(#paint5_angular_1_1362)" stroke-width="1.70856" stroke-linecap="round"/>
</g>
<g style="mix-blend-mode:overlay">
<path d="M554.743 278.791C262.653 312.951 46 438.328 46 587.768C46 763.489 345.555 905.939 715.076 905.939C1084.6 905.939 1384.15 763.489 1384.15 587.768C1384.15 433.492 1153.25 304.862 846.822 275.764" stroke="url(#paint6_angular_1_1362)" stroke-width="2.97033" stroke-linecap="round"/>
</g>
<g style="mix-blend-mode:overlay">
<path d="M554.743 281.032C262.653 315.192 46 440.569 46 590.009C46 765.73 345.555 908.18 715.076 908.18C1084.6 908.18 1384.15 765.73 1384.15 590.009C1384.15 435.733 1153.25 307.103 846.822 278.005" stroke="url(#paint7_angular_1_1362)" stroke-width="2.97033" stroke-linecap="round"/>
</g>
<g style="mix-blend-mode:overlay">
<path d="M869.566 285.965C1164.6 319.127 1384.15 445.177 1384.15 595.612C1384.15 771.333 1084.6 913.783 715.076 913.783C345.555 913.783 46 771.333 46 595.612C46 448.632 255.578 324.93 540.379 288.396" stroke="url(#paint8_angular_1_1362)" stroke-width="2.97033" stroke-linecap="round"/>
</g>
<g style="mix-blend-mode:overlay">
<path d="M517.635 300.485C244.49 340.544 46 461.537 46 604.576C46 780.297 345.555 922.746 715.076 922.746C1084.6 922.746 1384.15 780.297 1384.15 604.576C1384.15 456.901 1172.59 332.724 885.726 296.847" stroke="url(#paint9_angular_1_1362)" stroke-width="2.97033" stroke-linecap="round"/>
</g>
<g style="mix-blend-mode:overlay">
<path d="M910.265 312.482C1184.57 352.205 1384.15 473.469 1384.15 616.901C1384.15 792.622 1084.6 935.072 715.076 935.072C345.555 935.072 46 792.622 46 616.901C46 478.182 232.683 360.197 493.096 316.66" stroke="url(#paint10_angular_1_1362)" stroke-width="2.97033" stroke-linecap="round"/>
</g>
<defs>
<filter id="filter0_f_1_1362" x="132.936" y="0" width="1206" height="1206" filterUnits="userSpaceOnUse" color-interpolation-filters="sRGB">
<feFlood flood-opacity="0" result="BackgroundImageFix"/>
<feBlend mode="normal" in="SourceGraphic" in2="BackgroundImageFix" result="shape"/>
<feGaussianBlur stdDeviation="100" result="effect1_foregroundBlur_1_1362"/>
</filter>
<radialGradient id="paint0_radial_1_1362" cx="0" cy="0" r="1" gradientUnits="userSpaceOnUse" gradientTransform="translate(707.726 671.51) rotate(89.2284) scale(478.807)">
<stop stop-color="#2954A3"/>
<stop offset="1" stop-color="#0F103F"/>
</radialGradient>
<radialGradient id="paint1_angular_1_1362" cx="0" cy="0" r="1" gradientUnits="userSpaceOnUse" gradientTransform="translate(741.885 610.624) scale(410.066 191.751)">
<stop offset="0.458333" stop-color="white"/>
<stop offset="0.717799" stop-color="white" stop-opacity="0"/>
<stop offset="0.782437" stop-color="white" stop-opacity="0"/>
<stop offset="1" stop-color="white" stop-opacity="0.4"/>
</radialGradient>
<radialGradient id="paint2_angular_1_1362" cx="0" cy="0" r="1" gradientUnits="userSpaceOnUse" gradientTransform="translate(741.885 611.913) scale(410.066 191.751)">
<stop offset="0.458333" stop-color="white"/>
<stop offset="0.717799" stop-color="white" stop-opacity="0"/>
<stop offset="0.782437" stop-color="white" stop-opacity="0"/>
<stop offset="1" stop-color="white" stop-opacity="0.4"/>
</radialGradient>
<radialGradient id="paint3_angular_1_1362" cx="0" cy="0" r="1" gradientUnits="userSpaceOnUse" gradientTransform="translate(741.885 615.755) scale(410.066 191.034)">
<stop offset="0.458333" stop-color="white"/>
<stop offset="0.717799" stop-color="white" stop-opacity="0"/>
<stop offset="0.782437" stop-color="white" stop-opacity="0"/>
<stop offset="1" stop-color="white" stop-opacity="0.4"/>
</radialGradient>
<radialGradient id="paint4_angular_1_1362" cx="0" cy="0" r="1" gradientUnits="userSpaceOnUse" gradientTransform="translate(741.885 621.415) scale(410.066 190.45)">
<stop offset="0.458333" stop-color="white"/>
<stop offset="0.717799" stop-color="white" stop-opacity="0"/>
<stop offset="0.782437" stop-color="white" stop-opacity="0"/>
<stop offset="1" stop-color="white" stop-opacity="0.4"/>
</radialGradient>
<radialGradient id="paint5_angular_1_1362" cx="0" cy="0" r="1" gradientUnits="userSpaceOnUse" gradientTransform="translate(741.885 629.374) scale(410.066 189.443)">
<stop offset="0.458333" stop-color="white"/>
<stop offset="0.717799" stop-color="white" stop-opacity="0"/>
<stop offset="0.782437" stop-color="white" stop-opacity="0"/>
<stop offset="1" stop-color="white" stop-opacity="0.4"/>
</radialGradient>
<radialGradient id="paint6_angular_1_1362" cx="0" cy="0" r="1" gradientUnits="userSpaceOnUse" gradientTransform="translate(724.728 618.307) scale(712.898 333.358)">
<stop offset="0.458333" stop-color="white"/>
<stop offset="0.717799" stop-color="white" stop-opacity="0"/>
<stop offset="0.782437" stop-color="white" stop-opacity="0"/>
<stop offset="1" stop-color="white" stop-opacity="0.4"/>
</radialGradient>
<radialGradient id="paint7_angular_1_1362" cx="0" cy="0" r="1" gradientUnits="userSpaceOnUse" gradientTransform="translate(724.728 620.548) scale(712.898 333.358)">
<stop offset="0.458333" stop-color="white"/>
<stop offset="0.717799" stop-color="white" stop-opacity="0"/>
<stop offset="0.782437" stop-color="white" stop-opacity="0"/>
<stop offset="1" stop-color="white" stop-opacity="0.4"/>
</radialGradient>
<radialGradient id="paint8_angular_1_1362" cx="0" cy="0" r="1" gradientUnits="userSpaceOnUse" gradientTransform="translate(724.728 627.227) scale(712.898 332.111)">
<stop offset="0.458333" stop-color="white"/>
<stop offset="0.717799" stop-color="white" stop-opacity="0"/>
<stop offset="0.782437" stop-color="white" stop-opacity="0"/>
<stop offset="1" stop-color="white" stop-opacity="0.4"/>
</radialGradient>
<radialGradient id="paint9_angular_1_1362" cx="0" cy="0" r="1" gradientUnits="userSpaceOnUse" gradientTransform="translate(724.728 637.066) scale(712.898 331.097)">
<stop offset="0.458333" stop-color="white"/>
<stop offset="0.717799" stop-color="white" stop-opacity="0"/>
<stop offset="0.782437" stop-color="white" stop-opacity="0"/>
<stop offset="1" stop-color="white" stop-opacity="0.4"/>
</radialGradient>
<radialGradient id="paint10_angular_1_1362" cx="0" cy="0" r="1" gradientUnits="userSpaceOnUse" gradientTransform="translate(724.728 650.902) scale(712.898 329.346)">
<stop offset="0.458333" stop-color="white"/>
<stop offset="0.717799" stop-color="white" stop-opacity="0"/>
<stop offset="0.782437" stop-color="white" stop-opacity="0"/>
<stop offset="1" stop-color="white" stop-opacity="0.4"/>
</radialGradient>
</defs>
</svg>
